<svg width="92" height="92" viewBox="0 0 92 92" fill="none" xmlns="http://www.w3.org/2000/svg">
<path d="M87.1196 46.5188C87.1196 66.5444 87.1196 76.5576 80.9599 82.7786C74.8007 89 64.8868 89 45.0598 89C25.2326 89 15.319 89 9.15953 82.7786C3 76.5576 3 66.5444 3 46.5188C3 41.7256 3 37.5057 3.08446 33.7744M45.0598 4.03754C25.2326 4.03754 15.319 4.03754 9.15953 10.2588C7.37274 12.0635 6.10426 14.1872 5.20376 16.7819" stroke="#1C274C" stroke-width="5" stroke-linecap="round"/>
<path d="M3 48.6433L10.3671 42.1326C14.1999 38.7456 19.9765 38.9397 23.5777 42.577L41.6201 60.8002C44.5105 63.7199 49.0605 64.1179 52.4051 61.7437L53.6593 60.8537C58.4718 57.4373 64.9831 57.8333 69.3556 61.8078L82.9136 74.132" stroke="#1C274C" stroke-width="5" stroke-linecap="round"/>
<path d="M59.8888 20.9059C60.0271 19.5836 60.0363 19.5371 60.3314 19.3695C60.6448 19.1925 61.0781 19.2577 61.2902 19.5091C61.3824 19.6209 61.4654 19.9468 61.493 20.3286C61.7051 22.8148 62.544 24.7145 64.1482 26.2695C65.7063 27.7874 67.3197 28.5323 69.4678 28.7279C70.021 28.7837 70.5096 28.8768 70.6295 28.9513C70.9245 29.1469 70.9983 29.5752 70.8139 29.9291C70.6571 30.255 70.6203 30.2643 69.2927 30.404C67.2275 30.6368 65.4943 31.4655 64.0468 32.9275C62.5625 34.4267 61.7512 36.1959 61.5391 38.4028C61.4377 39.5109 61.3824 39.6506 60.9952 39.8089C60.7462 39.9114 60.654 39.9114 60.3959 39.781C60.0363 39.6041 60.0271 39.5948 59.8888 38.2259C59.4371 34.0077 56.2656 30.823 52.1168 30.3947C50.8077 30.2643 50.78 30.255 50.6048 29.8918C50.4758 29.6311 50.4758 29.538 50.5772 29.2866C50.7431 28.8862 50.8999 28.8303 51.9878 28.7279C54.1267 28.5323 55.906 27.7036 57.3904 26.2043C58.8378 24.7424 59.6583 22.9918 59.8888 20.9059Z" fill="#6C63FF"/>
<path d="M76.2069 2.34386C76.405 0.449816 76.4182 0.383123 76.8408 0.143034C77.2898 -0.110394 77.9105 -0.0170269 78.2142 0.343107C78.3463 0.503168 78.4651 0.970009 78.5047 1.51688C78.8085 5.07821 80.0102 7.79923 82.3081 10.0267C84.5399 12.2009 86.8509 13.2679 89.9279 13.548C90.7203 13.6281 91.4202 13.7615 91.5919 13.8682C92.0145 14.1483 92.1201 14.7618 91.856 15.2687C91.6315 15.7355 91.5787 15.7489 89.677 15.9489C86.7189 16.2824 84.2361 17.4695 82.1628 19.5636C80.0366 21.7111 78.8745 24.2454 78.5708 27.4065C78.4255 28.9938 78.3463 29.1939 77.7916 29.4206C77.4351 29.5674 77.303 29.5674 76.9332 29.3806C76.4182 29.1272 76.405 29.1139 76.2069 27.1531C75.5598 21.1109 71.0169 16.5492 65.0742 15.9356C63.199 15.7489 63.1594 15.7355 62.9085 15.2153C62.7236 14.8419 62.7236 14.7085 62.8688 14.3483C63.1066 13.7748 63.3311 13.6948 64.8894 13.548C67.9532 13.2679 70.5019 12.0808 72.6281 9.93336C74.7014 7.83924 75.8767 5.33164 76.2069 2.34386Z" fill="#6C63FF"/>
</svg>
