<svg width="175" height="72" viewBox="0 0 557 138" fill="none" xmlns="http://www.w3.org/2000/svg">
<path d="M14 40.2V110H0V40.2H14ZM96.7818 53.8C103.582 53.8 109.049 55.9 113.182 60.1C117.382 64.2333 119.482 70.0333 119.482 77.5V110H105.482V79.4C105.482 75.0667 104.382 71.7667 102.182 69.5C99.9818 67.1667 96.9818 66 93.1818 66C89.382 66 86.3487 67.1667 84.082 69.5C81.882 71.7667 80.782 75.0667 80.782 79.4V110H66.782V79.4C66.782 75.0667 65.682 71.7667 63.482 69.5C61.282 67.1667 58.282 66 54.482 66C50.6154 66 47.5487 67.1667 45.282 69.5C43.082 71.7667 41.982 75.0667 41.982 79.4V110H27.982V54.6H41.982V61.3C43.782 58.9667 46.082 57.1333 48.882 55.8C51.7487 54.4667 54.882 53.8 58.282 53.8C62.6154 53.8 66.482 54.7333 69.882 56.6C73.282 58.4 75.9154 61 77.782 64.4C79.582 61.2 82.182 58.6333 85.582 56.7C89.0487 54.7667 92.782 53.8 96.7818 53.8ZM129.317 82.1C129.317 76.5 130.417 71.5333 132.617 67.2C134.884 62.8667 137.917 59.5333 141.717 57.2C145.584 54.8667 149.884 53.7 154.617 53.7C158.751 53.7 162.351 54.5333 165.417 56.2C168.551 57.8667 171.051 59.9667 172.917 62.5V54.6H187.017V110H172.917V101.9C171.117 104.5 168.617 106.667 165.417 108.4C162.284 110.067 158.651 110.9 154.517 110.9C149.851 110.9 145.584 109.7 141.717 107.3C137.917 104.9 134.884 101.533 132.617 97.2C130.417 92.8 129.317 87.7667 129.317 82.1ZM172.917 82.3C172.917 78.9 172.251 76 170.917 73.6C169.584 71.1333 167.784 69.2667 165.517 68C163.251 66.6667 160.817 66 158.217 66C155.617 66 153.217 66.6333 151.017 67.9C148.817 69.1667 147.017 71.0333 145.617 73.5C144.284 75.9 143.617 78.7667 143.617 82.1C143.617 85.4333 144.284 88.3667 145.617 90.9C147.017 93.3667 148.817 95.2667 151.017 96.6C153.284 97.9333 155.684 98.6 158.217 98.6C160.817 98.6 163.251 97.9667 165.517 96.7C167.784 95.3667 169.584 93.5 170.917 91.1C172.251 88.6333 172.917 85.7 172.917 82.3ZM222.541 53.7C226.674 53.7 230.307 54.5333 233.441 56.2C236.574 57.8 239.041 59.9 240.841 62.5V54.6H254.941V110.4C254.941 115.533 253.908 120.1 251.841 124.1C249.774 128.167 246.674 131.367 242.541 133.7C238.408 136.1 233.408 137.3 227.541 137.3C219.674 137.3 213.207 135.467 208.141 131.8C203.141 128.133 200.307 123.133 199.641 116.8H213.541C214.274 119.333 215.841 121.333 218.241 122.8C220.707 124.333 223.674 125.1 227.141 125.1C231.207 125.1 234.507 123.867 237.041 121.4C239.574 119 240.841 115.333 240.841 110.4V101.8C239.041 104.4 236.541 106.567 233.341 108.3C230.207 110.033 226.607 110.9 222.541 110.9C217.874 110.9 213.607 109.7 209.741 107.3C205.874 104.9 202.807 101.533 200.541 97.2C198.341 92.8 197.241 87.7667 197.241 82.1C197.241 76.5 198.341 71.5333 200.541 67.2C202.807 62.8667 205.841 59.5333 209.641 57.2C213.507 54.8667 217.807 53.7 222.541 53.7ZM240.841 82.3C240.841 78.9 240.174 76 238.841 73.6C237.508 71.1333 235.707 69.2667 233.441 68C231.174 66.6667 228.741 66 226.141 66C223.541 66 221.141 66.6333 218.941 67.9C216.741 69.1667 214.941 71.0333 213.541 73.5C212.207 75.9 211.541 78.7667 211.541 82.1C211.541 85.4333 212.207 88.3667 213.541 90.9C214.941 93.3667 216.741 95.2667 218.941 96.6C221.207 97.9333 223.607 98.6 226.141 98.6C228.741 98.6 231.174 97.9667 233.441 96.7C235.707 95.3667 237.508 93.5 238.841 91.1C240.174 88.6333 240.841 85.7 240.841 82.3ZM320.264 81.1C320.264 83.1 320.131 84.9 319.864 86.5H279.364C279.698 90.5 281.098 93.6333 283.564 95.9C286.031 98.1667 289.064 99.3 292.664 99.3C297.864 99.3 301.564 97.0667 303.764 92.6H318.864C317.264 97.9333 314.198 102.333 309.664 105.8C305.131 109.2 299.564 110.9 292.964 110.9C287.631 110.9 282.831 109.733 278.564 107.4C274.364 105 271.064 101.633 268.664 97.3C266.331 92.9667 265.164 87.9667 265.164 82.3C265.164 76.5667 266.331 71.5333 268.664 67.2C270.998 62.8667 274.264 59.5333 278.464 57.2C282.664 54.8667 287.498 53.7 292.964 53.7C298.231 53.7 302.931 54.8333 307.064 57.1C311.264 59.3667 314.498 62.6 316.764 66.8C319.098 70.9333 320.264 75.7 320.264 81.1ZM305.764 77.1C305.698 73.5 304.398 70.6333 301.864 68.5C299.331 66.3 296.231 65.2 292.564 65.2C289.098 65.2 286.164 66.2667 283.764 68.4C281.431 70.4667 279.998 73.3667 279.464 77.1H305.764ZM338.733 104.3H363.833V110H331.733V40.1H338.733V104.3ZM370.773 82.6C370.773 77 371.873 72.1 374.073 67.9C376.34 63.6333 379.44 60.3667 383.373 58.1C387.373 55.7667 391.873 54.6 396.873 54.6C402.073 54.6 406.54 55.8 410.273 58.2C414.073 60.6 416.806 63.6667 418.473 67.4V55.4H425.473V110H418.473V97.9C416.74 101.633 413.973 104.733 410.173 107.2C406.44 109.6 401.973 110.8 396.773 110.8C391.84 110.8 387.373 109.633 383.373 107.3C379.44 104.967 376.34 101.667 374.073 97.4C371.873 93.1333 370.773 88.2 370.773 82.6ZM418.473 82.7C418.473 78.3 417.573 74.4333 415.773 71.1C413.973 67.7667 411.506 65.2 408.373 63.4C405.306 61.6 401.906 60.7 398.173 60.7C394.306 60.7 390.84 61.5667 387.773 63.3C384.706 65.0333 382.273 67.5667 380.473 70.9C378.74 74.1667 377.873 78.0667 377.873 82.6C377.873 87.0667 378.74 91 380.473 94.4C382.273 97.7333 384.706 100.3 387.773 102.1C390.84 103.833 394.306 104.7 398.173 104.7C401.906 104.7 405.306 103.8 408.373 102C411.506 100.2 413.973 97.6333 415.773 94.3C417.573 90.9667 418.473 87.1 418.473 82.7ZM448.503 67.5C450.303 63.7 453.07 60.6 456.803 58.2C460.603 55.8 465.07 54.6 470.203 54.6C475.203 54.6 479.67 55.7667 483.603 58.1C487.537 60.3667 490.603 63.6333 492.803 67.9C495.07 72.1 496.203 77 496.203 82.6C496.203 88.2 495.07 93.1333 492.803 97.4C490.603 101.667 487.503 104.967 483.503 107.3C479.57 109.633 475.137 110.8 470.203 110.8C465.003 110.8 460.503 109.633 456.703 107.3C452.97 104.9 450.237 101.8 448.503 98V110H441.603V36H448.503V67.5ZM489.103 82.6C489.103 78.0667 488.203 74.1667 486.403 70.9C484.67 67.5667 482.27 65.0333 479.203 63.3C476.137 61.5667 472.67 60.7 468.803 60.7C465.07 60.7 461.637 61.6 458.503 63.4C455.437 65.2 453.003 67.7667 451.203 71.1C449.403 74.4333 448.503 78.3 448.503 82.7C448.503 87.1 449.403 90.9667 451.203 94.3C453.003 97.6333 455.437 100.2 458.503 102C461.637 103.8 465.07 104.7 468.803 104.7C472.67 104.7 476.137 103.833 479.203 102.1C482.27 100.3 484.67 97.7333 486.403 94.4C488.203 91 489.103 87.0667 489.103 82.6Z" fill="#1C274C"/>
<path d="M509.788 30.2084C509.99 28.2978 510.003 28.2305 510.434 27.9883C510.892 27.7327 511.524 27.8269 511.833 28.1902C511.968 28.3516 512.089 28.8226 512.129 29.3742C512.439 32.9668 513.663 35.7116 516.005 37.9587C518.278 40.1519 520.633 41.2283 523.768 41.5108C524.575 41.5916 525.289 41.7261 525.464 41.8338C525.894 42.1163 526.002 42.7353 525.733 43.2466C525.504 43.7175 525.45 43.7309 523.513 43.9328C520.499 44.2692 517.969 45.4667 515.856 47.5791C513.69 49.7454 512.506 52.3019 512.197 55.4908C512.049 57.092 511.968 57.2938 511.403 57.5226C511.04 57.6706 510.905 57.6706 510.528 57.4822C510.003 57.2265 509.99 57.2131 509.788 55.2352C509.129 49.1399 504.5 44.5383 498.445 43.9193C496.535 43.7309 496.494 43.7175 496.239 43.1927C496.05 42.816 496.05 42.6814 496.198 42.3181C496.441 41.7396 496.669 41.6588 498.257 41.5108C501.379 41.2283 503.976 40.0308 506.142 37.8645C508.254 35.752 509.452 33.2224 509.788 30.2084Z" fill="#6C63FF"/>
<path d="M533.603 3.38684C533.893 0.650023 533.912 0.553656 534.529 0.206736C535.184 -0.159459 536.09 -0.0245494 536.533 0.495833C536.726 0.727113 536.899 1.40168 536.957 2.19189C537.4 7.33787 539.154 11.2697 542.508 14.4883C545.765 17.6299 549.138 19.1717 553.628 19.5765C554.785 19.6921 555.806 19.8848 556.057 20.039C556.674 20.4438 556.828 21.3303 556.442 22.0627C556.115 22.7373 556.038 22.7566 553.262 23.0457C548.945 23.5275 545.322 25.2428 542.296 28.2688C539.193 31.3718 537.497 35.0337 537.053 39.6015C536.841 41.895 536.726 42.1841 535.916 42.5118C535.396 42.7238 535.203 42.7238 534.663 42.4539C533.912 42.0877 533.893 42.0685 533.603 39.2353C532.659 30.5045 526.029 23.913 517.356 23.0264C514.619 22.7566 514.561 22.7373 514.195 21.9856C513.925 21.446 513.925 21.2533 514.137 20.7329C514.484 19.9041 514.812 19.7885 517.086 19.5765C521.558 19.1717 525.277 17.4564 528.38 14.3534C531.406 11.3275 533.122 7.70406 533.603 3.38684Z" fill="#6C63FF"/>
</svg>
