<svg width="476" height="378" viewBox="0 0 476 378" fill="none" xmlns="http://www.w3.org/2000/svg">
<g clip-path="url(#clip0_31_3086)">
<path d="M422.637 330C422.637 330 476 283.586 476 222.336C476 161.087 441.364 161.075 411.398 82.183C381.432 3.29121 296.24 -6.91507 244.752 18.1389C201.055 39.415 188.583 103.531 151.128 115.596C113.674 127.661 109.996 97.9661 50.0156 113.737C-9.96487 129.508 20.9811 215.836 20.9811 215.836L137.119 180.564L422.637 330Z" fill="white" fill-opacity="0.29"/>
<path d="M201.329 319.038L122.803 350.455L31.6968 259.349L91.386 250.714L201.329 319.038Z" fill="#9747FF"/>
<path opacity="0.5" d="M201.329 319.038L122.803 350.455L31.6968 259.349L91.386 250.714L201.329 319.038Z" fill="white"/>
<path d="M297.925 360.668C308.334 360.668 316.773 355.041 316.773 348.099C316.773 341.157 308.334 335.53 297.925 335.53C287.515 335.53 279.077 341.157 279.077 348.099C279.077 355.041 287.515 360.668 297.925 360.668Z" fill="#9747FF"/>
<path opacity="0.5" d="M297.925 360.668C308.334 360.668 316.773 355.041 316.773 348.099C316.773 341.157 308.334 335.53 297.925 335.53C287.515 335.53 279.077 341.157 279.077 348.099C279.077 355.041 287.515 360.668 297.925 360.668Z" fill="white"/>
<path d="M224.111 276.736L339.178 285.853L313.639 272.707L224.111 276.736Z" fill="#9747FF"/>
<path opacity="0.5" d="M224.111 276.736L339.178 285.853L313.639 272.707L224.111 276.736Z" fill="white"/>
<path d="M250.027 241.29L215.889 238.498L220.177 233.433H239.814L250.027 241.29Z" fill="#9747FF"/>
<path opacity="0.5" d="M250.027 241.29L215.889 238.498L220.177 233.433H239.814L250.027 241.29Z" fill="white"/>
<path d="M360.724 377.549C373.95 377.549 384.673 371.046 384.673 363.024C384.673 355.003 373.95 348.5 360.724 348.5C347.497 348.5 336.775 355.003 336.775 363.024C336.775 371.046 347.497 377.549 360.724 377.549Z" fill="#9747FF"/>
<path opacity="0.5" d="M360.724 377.549C373.95 377.549 384.673 371.046 384.673 363.024C384.673 355.003 373.95 348.5 360.724 348.5C347.497 348.5 336.775 355.003 336.775 363.024C336.775 371.046 347.497 377.549 360.724 377.549Z" fill="white"/>
<path d="M218.81 329.298L205.911 350.491L234.478 356.027L245.539 334.835L218.81 329.298Z" fill="white" stroke="#263238" stroke-linecap="round" stroke-linejoin="round"/>
<path d="M240.933 305.35L228.034 324.692L254.751 332.985L265.812 313.643L240.933 305.35Z" fill="#9747FF"/>
<mask id="mask0_31_3086" style="mask-type:luminance" maskUnits="userSpaceOnUse" x="228" y="305" width="38" height="28">
<path d="M240.933 305.35L228.034 324.692L254.751 332.985L265.812 313.643L240.933 305.35Z" fill="white"/>
</mask>
<g mask="url(#mask0_31_3086)">
<path opacity="0.5" d="M240.933 305.35L228.034 324.692L254.751 332.985L265.812 313.643L240.933 305.35Z" fill="white" stroke="#263238" stroke-miterlimit="10"/>
</g>
<path d="M240.933 305.35L228.034 324.692L254.751 332.985L265.812 313.643L240.933 305.35Z" stroke="#263238" stroke-linecap="round" stroke-linejoin="round"/>
<path d="M269.5 342.209L246.458 348.653L255.67 363.401L282.399 356.946L269.5 342.209Z" fill="#9747FF" stroke="#263238" stroke-linecap="round" stroke-linejoin="round"/>
<path d="M335.232 338.428L337.588 356.322C337.588 363.731 346.6 369.751 357.72 369.751C368.84 369.751 377.864 363.731 377.864 356.322L380.29 338.428H335.232Z" fill="#9747FF" stroke="#263238" stroke-linecap="round" stroke-linejoin="round"/>
<path d="M357.744 353.471C370.202 353.471 380.302 346.736 380.302 338.428C380.302 330.12 370.202 323.385 357.744 323.385C345.285 323.385 335.185 330.12 335.185 338.428C335.185 346.736 345.285 353.471 357.744 353.471Z" fill="#9747FF" stroke="#263238" stroke-linecap="round" stroke-linejoin="round"/>
<path d="M357.744 351.221C368.342 351.221 376.933 345.493 376.933 338.428C376.933 331.363 368.342 325.635 357.744 325.635C347.145 325.635 338.554 331.363 338.554 338.428C338.554 345.493 347.145 351.221 357.744 351.221Z" fill="#9747FF" stroke="#263238" stroke-linecap="round" stroke-linejoin="round"/>
<path d="M357.744 351.233C368.16 351.233 376.603 346.539 376.603 340.749C376.603 334.958 368.16 330.264 357.744 330.264C347.328 330.264 338.884 334.958 338.884 340.749C338.884 346.539 347.328 351.233 357.744 351.233Z" fill="#263238" stroke="#263238" stroke-linecap="round" stroke-linejoin="round"/>
<path d="M364.541 304.089C361.266 301.981 356.295 302.169 354.304 306.068C351.359 311.746 353.467 322.266 352.407 323.738C351.347 325.211 348.202 325.635 346.729 322.478C345.257 319.321 345.257 315.115 343.36 314.903C341.464 314.691 338.943 315.539 338.519 320.381C338.094 325.223 338.943 330.688 342.312 333.209C345.681 335.73 349.462 334.894 350.558 335.954C351.653 337.014 350.558 338.664 350.558 339.747C350.558 344.459 356.719 346.815 360.618 345.637C366.296 343.953 365.671 338.263 366.508 335.954C367.344 333.645 371.986 333.421 373.67 329.852C375.355 326.283 377.876 319.109 374.294 316.376C370.713 313.643 367.98 314.903 367.568 317.848C367.078 320.187 366.286 322.452 365.212 324.586C367.733 319.604 370.207 307.741 364.541 304.089Z" fill="#9747FF"/>
<mask id="mask1_31_3086" style="mask-type:luminance" maskUnits="userSpaceOnUse" x="338" y="302" width="39" height="44">
<path d="M364.541 304.089C361.266 301.981 356.295 302.169 354.304 306.068C351.359 311.746 353.467 322.266 352.407 323.738C351.347 325.211 348.202 325.635 346.729 322.478C345.257 319.321 345.257 315.115 343.36 314.903C341.464 314.691 338.943 315.539 338.519 320.381C338.094 325.223 338.943 330.688 342.312 333.209C345.681 335.73 349.462 334.894 350.558 335.954C351.653 337.014 350.558 338.664 350.558 339.747C350.558 344.459 356.719 346.815 360.618 345.637C366.296 343.953 365.671 338.263 366.508 335.954C367.344 333.645 371.986 333.421 373.67 329.852C375.355 326.283 377.876 319.109 374.294 316.376C370.713 313.643 367.98 314.903 367.568 317.848C367.078 320.187 366.286 322.452 365.212 324.586C367.733 319.604 370.207 307.741 364.541 304.089Z" fill="white"/>
</mask>
<g mask="url(#mask1_31_3086)">
<path opacity="0.2" d="M364.541 304.089C361.266 301.981 356.295 302.169 354.304 306.068C351.359 311.746 353.467 322.266 352.407 323.738C351.347 325.211 348.202 325.635 346.729 322.478C345.257 319.321 345.257 315.115 343.36 314.903C341.464 314.691 338.943 315.539 338.519 320.381C338.094 325.223 338.943 330.688 342.312 333.209C345.681 335.73 349.462 334.894 350.558 335.954C351.653 337.014 350.558 338.664 350.558 339.747C350.558 344.459 356.719 346.815 360.618 345.637C366.296 343.953 365.671 338.263 366.508 335.954C367.344 333.645 371.986 333.421 373.67 329.852C375.355 326.283 377.876 319.109 374.294 316.376C370.713 313.643 367.98 314.903 367.568 317.848C367.078 320.187 366.286 322.452 365.212 324.586C367.733 319.604 370.207 307.741 364.541 304.089Z" fill="black"/>
</g>
<path d="M364.541 304.089C361.266 301.981 356.295 302.169 354.304 306.068C351.359 311.746 353.467 322.266 352.407 323.738C351.347 325.211 348.202 325.635 346.729 322.478C345.257 319.321 345.257 315.115 343.36 314.903C341.464 314.691 338.943 315.539 338.519 320.381C338.094 325.223 338.943 330.688 342.312 333.209C345.681 335.73 349.462 334.894 350.558 335.954C351.653 337.014 350.558 338.664 350.558 339.747C350.558 344.459 356.719 346.815 360.618 345.637C366.296 343.953 365.671 338.263 366.508 335.954C367.344 333.645 371.986 333.421 373.67 329.852C375.355 326.283 377.876 319.109 374.294 316.376C370.713 313.643 367.98 314.903 367.568 317.848C367.078 320.187 366.286 322.452 365.212 324.586C367.733 319.604 370.207 307.741 364.541 304.089Z" stroke="#263238" stroke-linecap="round" stroke-linejoin="round"/>
<path d="M359.357 305.644C358.402 306.273 357.602 307.111 357.018 308.095C356.435 309.079 356.082 310.182 355.988 311.322C355.776 315.115 355.988 327.107 354.516 328.792C353.043 330.477 348.202 330.052 345.092 327.107C341.982 324.162 343.36 317.86 343.36 317.86" stroke="#263238" stroke-width="0.5" stroke-linecap="round" stroke-linejoin="round"/>
<path d="M344.291 330.818C345.382 331.667 346.644 332.27 347.99 332.585C351.783 333.421 354.516 331.537 355.152 333.421C355.788 335.306 354.516 342.056 354.516 342.056" stroke="#263238" stroke-width="0.5" stroke-linecap="round" stroke-linejoin="round"/>
<path d="M342.1 328.58C342.492 329.133 342.942 329.642 343.443 330.099" stroke="#263238" stroke-width="0.5" stroke-linecap="round" stroke-linejoin="round"/>
<path d="M359.287 338.605C359.499 335.468 359.523 332.321 359.357 329.181C358.98 324.469 361.171 315.716 361.713 311.758" stroke="#263238" stroke-width="0.5" stroke-linecap="round" stroke-linejoin="round"/>
<path d="M358.933 343.529C358.933 343.529 359.051 342.245 359.181 340.36" stroke="#263238" stroke-width="0.5" stroke-linecap="round" stroke-linejoin="round"/>
<path d="M373.505 322.442C373.611 321.418 373.67 320.793 373.67 320.793" stroke="#263238" stroke-width="0.5" stroke-linecap="round" stroke-linejoin="round"/>
<path d="M363.563 339.736C363.563 339.736 364.411 332.797 366.095 331.49C367.78 330.182 372.61 329.381 373.034 326.224C373.105 325.729 373.163 325.258 373.222 324.822" stroke="#263238" stroke-width="0.5" stroke-linecap="round" stroke-linejoin="round"/>
<path d="M370.725 318.06C370.284 318.356 369.932 318.767 369.707 319.249C369.483 319.731 369.395 320.265 369.453 320.793C369.539 322.054 369.271 323.314 368.677 324.43C368.084 325.547 367.189 326.474 366.095 327.107" stroke="#263238" stroke-width="0.5" stroke-linecap="round" stroke-linejoin="round"/>
<path d="M361.949 309.355C362.012 308.177 361.988 306.996 361.878 305.821" stroke="#263238" stroke-width="0.5" stroke-linecap="round" stroke-linejoin="round"/>
<path d="M281.727 304.737L284.849 337.603V341.078C284.849 345.79 291.469 349.525 299.645 349.525C307.82 349.525 314.44 345.743 314.44 341.078V337.603L317.279 304.396L281.727 304.737Z" fill="white" stroke="#263238" stroke-linecap="round" stroke-linejoin="round"/>
<path d="M314.582 335.824L316.219 316.682C314.016 320.11 307.443 322.572 299.668 322.572C291.481 322.572 284.637 319.815 282.811 316.105L284.672 335.707C287.688 338.216 293.26 339.912 299.668 339.912C306.077 339.912 311.566 338.298 314.582 335.824Z" fill="#9747FF" stroke="#263238" stroke-linecap="round" stroke-linejoin="round"/>
<path d="M282.316 310.933V310.709L282.163 309.39L282.316 310.933Z" fill="white" stroke="#263238" stroke-linecap="round" stroke-linejoin="round"/>
<path d="M317.845 299.86C314.711 295.902 307.749 293.134 299.645 293.134C291.54 293.134 284.578 295.902 281.433 299.86H279.654V304.572C279.654 310.886 288.607 315.999 299.68 315.999C310.753 315.999 319.706 310.886 319.706 304.572V299.86H317.845Z" fill="#9747FF" stroke="#263238" stroke-linecap="round" stroke-linejoin="round"/>
<path opacity="0.2" d="M317.845 299.86C314.711 295.902 307.749 293.134 299.645 293.134C291.54 293.134 284.578 295.902 281.433 299.86H279.654V304.572C279.654 310.886 288.607 315.999 299.68 315.999C310.753 315.999 319.706 310.886 319.706 304.572V299.86H317.845Z" fill="black"/>
<path d="M299.645 311.287C310.685 311.287 319.635 306.171 319.635 299.86C319.635 293.549 310.685 288.434 299.645 288.434C288.604 288.434 279.654 293.549 279.654 299.86C279.654 306.171 288.604 311.287 299.645 311.287Z" fill="white" stroke="#263238" stroke-linecap="round" stroke-linejoin="round"/>
<path d="M315.548 293.487C312.803 290.024 306.725 287.597 299.645 287.597C292.565 287.597 286.487 290.012 283.742 293.487H282.222V297.587C282.222 303.1 290.032 307.564 299.68 307.564C309.328 307.564 317.138 303.1 317.138 297.587V293.487H315.548Z" fill="#9747FF" stroke="#263238" stroke-linecap="round" stroke-linejoin="round"/>
<path d="M299.645 303.465C309.287 303.465 317.103 298.998 317.103 293.487C317.103 287.977 309.287 283.51 299.645 283.51C290.003 283.51 282.187 287.977 282.187 293.487C282.187 298.998 290.003 303.465 299.645 303.465Z" fill="white" stroke="#263238" stroke-linecap="round" stroke-linejoin="round"/>
<path d="M123.439 196.597C123.439 196.597 124.806 195.69 133.476 199.33C142.146 202.97 145.551 202.18 153.985 200.696C164.116 198.929 172.527 197.162 173.54 201.262C175.295 208.33 168.203 208.247 155.446 209.614C142.688 210.98 135.29 207.081 131.191 205.255C129.304 204.48 127.477 203.567 125.725 202.522L123.439 196.597Z" fill="white" stroke="#263238" stroke-linecap="round" stroke-linejoin="round"/>
<path d="M103.837 200.249C103.837 200.249 115.241 213.466 120.247 209.814C125.254 206.162 124.806 194.323 120.247 190.671C115.688 187.02 102.93 193.864 103.837 200.249Z" fill="white" stroke="#263238" stroke-linecap="round" stroke-linejoin="round"/>
<path d="M138.506 163.778C138.506 163.778 138.965 176.088 135.773 184.287C132.581 192.485 126.655 197.963 125.748 202.522C124.841 207.081 125.289 213.466 120.73 215.291C116.171 217.117 116.171 213.925 116.631 210.273C117.09 206.621 117.997 192.957 117.997 192.957L102.93 202.063C102.93 202.063 107.03 213.466 98.3715 214.832C89.7132 216.199 79.229 202.981 77.8626 192.992C76.4961 183.003 81.962 160.621 91.5392 154.695C101.116 148.77 113.415 149.689 119.811 149.689C126.208 149.689 135.749 154.212 138.506 163.778Z" fill="white" stroke="#263238" stroke-linecap="round" stroke-linejoin="round"/>
<path d="M102.165 151.126C102.165 151.126 99.8087 152.304 95.6975 158.771C91.5862 165.238 99.8087 170.81 104.226 167.877C108.644 164.944 104.803 158.771 108.043 155.826C109.907 154.245 111.157 152.061 111.577 149.653L102.165 151.126Z" fill="#263238"/>
<path d="M88.9475 160.232C87.8942 160.984 87.0097 161.948 86.3504 163.061C85.6911 164.175 85.2717 165.414 85.119 166.699C84.8245 170.81 92.187 163.165 93.0587 159.631C93.9304 156.097 88.9475 160.232 88.9475 160.232Z" fill="#263238"/>
<path d="M115.24 151.02C114.195 152.919 113.685 155.066 113.766 157.233C113.847 159.399 114.516 161.502 115.7 163.318C119.799 169.703 128.917 172.436 132.557 167.877C136.197 163.318 137.575 161.045 136.209 158.771C134.842 156.497 121.625 147.368 115.24 151.02Z" fill="#9747FF" stroke="#263238" stroke-linecap="round" stroke-linejoin="round"/>
<path d="M148.967 128.685C147.237 128.873 145.486 128.685 143.835 128.134C142.184 127.583 140.672 126.682 139.401 125.493C134.843 121.393 130.731 112.276 128.917 112.723C127.103 113.171 120.671 126.4 120.671 126.4C120.671 126.4 109.728 127.319 108.821 130.499C107.913 133.68 112.92 148.735 117.067 155.119C119 157.963 121.574 160.314 124.582 161.981C127.59 163.649 130.947 164.587 134.383 164.72C139.849 164.72 156.259 166.087 158.544 160.609C160.829 155.131 158.992 138.733 158.992 138.733C158.992 138.733 166.295 131.442 163.103 130.075C159.91 128.709 148.967 128.685 148.967 128.685Z" fill="white" stroke="#263238" stroke-linecap="round" stroke-linejoin="round"/>
<path d="M146.752 151.491C146.198 150.772 145.668 150.042 145.15 149.288C144.29 148.016 142.252 146.072 138.329 147.309C132.746 149.064 128.905 154.377 135.102 158.771C140.933 162.953 152.642 159.183 146.752 151.491Z" fill="#263238"/>
<path d="M120.707 126.4C120.707 126.4 127.091 130.051 130.731 128.685C134.371 127.319 132.098 111.816 128.917 112.723C125.737 113.63 120.247 120.474 120.707 126.4Z" fill="white" stroke="#263238" stroke-linecap="round" stroke-linejoin="round"/>
<path d="M163.103 130.052C163.103 130.052 157.213 129.592 153.526 133.692C149.838 137.791 152.159 141.938 157.177 142.809C162.196 143.681 164.917 130.052 163.103 130.052Z" fill="white" stroke="#263238" stroke-linecap="round" stroke-linejoin="round"/>
<path d="M127.551 155.579C127.551 155.579 121.661 151.02 122.992 154.66C124.323 158.3 126.632 158.771 128.882 157.852C131.132 156.933 127.551 155.579 127.551 155.579Z" fill="#9747FF" stroke="#263238" stroke-linecap="round" stroke-linejoin="round"/>
<path d="M124.299 144.152C123.958 145.33 122.992 146.155 122.144 145.919C121.296 145.684 120.883 144.506 121.225 143.292C121.566 142.079 122.532 141.29 123.381 141.525C124.229 141.761 124.641 142.951 124.299 144.152Z" fill="#263238"/>
<path d="M138.353 154.907C137.257 155.543 135.997 155.449 135.573 154.683C135.149 153.918 135.643 152.799 136.751 152.162C137.155 151.841 137.667 151.684 138.182 151.723C138.698 151.762 139.18 151.995 139.531 152.375C139.955 153.14 139.437 154.271 138.353 154.907Z" fill="white"/>
<path d="M97.4646 183.839C97.4646 183.839 96.0981 193.864 97.9122 197.975C99.7263 202.086 101.564 217.577 105.216 218.001C108.868 218.425 107.489 209.755 107.489 208.424C107.489 207.093 107.949 192.474 107.949 192.474C107.949 192.474 111.141 185.63 112.955 181.99" fill="white"/>
<path d="M97.4646 183.839C97.4646 183.839 96.0981 193.864 97.9122 197.975C99.7263 202.086 101.564 217.577 105.216 218.001C108.868 218.425 107.489 209.755 107.489 208.424C107.489 207.093 107.949 192.474 107.949 192.474C107.949 192.474 111.141 185.63 112.955 181.99" stroke="#263238" stroke-linecap="round" stroke-linejoin="round"/>
<path d="M82.4214 183.38C82.4214 183.38 94.7315 179.728 96.098 193.404" stroke="#263238" stroke-linecap="round" stroke-linejoin="round"/>
<path d="M117.973 192.992C117.973 192.992 128.458 187.514 128.917 175.664" stroke="#263238" stroke-linecap="round" stroke-linejoin="round"/>
<path d="M1.2561 219.64L9.01912 217.885" stroke="#263238" stroke-linecap="round" stroke-linejoin="round"/>
<path d="M56.0461 257.452L118.645 239.7C120.635 239.489 122.636 239.971 124.311 241.066L226.173 306.151C226.607 306.431 226.944 306.838 227.139 307.317C227.334 307.795 227.377 308.322 227.263 308.826C227.148 309.33 226.882 309.786 226.5 310.134C226.117 310.481 225.637 310.703 225.124 310.768L139.46 337.45L56.0461 257.452Z" fill="#9747FF" stroke="#263238" stroke-linecap="round" stroke-linejoin="round"/>
<path d="M92.6465 261.198L101.517 267.312L111.765 264.414L102.907 258.312L92.6465 261.198Z" fill="#263238"/>
<path d="M98.1714 278.291L89.3129 272.177L79.0525 275.075L87.9228 281.189L98.1714 278.291Z" fill="#263238"/>
<path d="M114.934 264.944L123.793 271.046L134.041 268.148L125.183 262.046L114.934 264.944Z" fill="#263238"/>
<path d="M125.265 272.059L134.124 278.161L144.373 275.263L135.514 269.161L125.265 272.059Z" fill="#263238"/>
<path d="M102.978 268.313L111.836 274.427L122.085 271.529L113.226 265.427L102.978 268.313Z" fill="#263238"/>
<path d="M80.6899 264.579L89.5485 270.693L99.8089 267.795L90.9385 261.681L80.6899 264.579Z" fill="#263238"/>
<path d="M151.429 303.37L142.558 297.257L132.322 300.154L141.18 306.268L151.429 303.37Z" fill="#263238"/>
<path d="M139.46 306.751L130.602 300.637L120.353 303.535L129.223 309.637L139.46 306.751Z" fill="#263238"/>
<path d="M108.491 285.406L99.6321 279.292L89.3835 282.19L98.2421 288.292L108.491 285.406Z" fill="#263238"/>
<path d="M161.748 310.486L152.889 304.384L142.641 307.27L151.499 313.383L161.748 310.486Z" fill="#263238"/>
<path d="M118.822 292.521L109.951 286.407L99.7029 289.305L108.573 295.407L118.822 292.521Z" fill="#263238"/>
<path d="M129.141 299.636L120.283 293.522L110.034 296.42L118.892 302.534L129.141 299.636Z" fill="#263238"/>
<path d="M135.585 279.174L144.443 285.277L154.692 282.379L145.833 276.277L135.585 279.174Z" fill="#263238"/>
<path d="M91.021 271.694L99.8796 277.808L110.128 274.91L101.27 268.808L91.021 271.694Z" fill="#263238"/>
<path d="M173.705 307.105L164.846 301.003L154.598 303.901L163.456 310.003L173.705 307.105Z" fill="#263238"/>
<path d="M142.735 285.76L133.877 279.657L123.628 282.544L132.486 288.657L142.735 285.76Z" fill="#263238"/>
<path d="M120.447 282.025L111.589 275.911L101.34 278.809L110.199 284.923L120.447 282.025Z" fill="#263238"/>
<path d="M77.5212 264.061L72.338 260.479L65.3289 262.447L69.4283 266.346L77.5212 264.061Z" fill="#263238"/>
<path d="M87.8402 271.176L78.9817 265.062L70.5825 267.442L77.5209 274.015L77.5916 274.062L87.8402 271.176Z" fill="#263238"/>
<path d="M113.297 275.44L122.167 281.542L132.416 278.644L123.545 272.542L113.297 275.44Z" fill="#263238"/>
<path d="M130.779 289.14L121.92 283.038L111.671 285.924L120.53 292.038L130.779 289.14Z" fill="#263238"/>
<path d="M175.342 296.609L166.484 290.507L156.235 293.405L165.094 299.507L175.342 296.609Z" fill="#263238"/>
<path d="M145.904 286.29L154.774 292.392L165.023 289.494L156.164 283.392L145.904 286.29Z" fill="#263238"/>
<path d="M163.385 299.99L154.527 293.888L144.278 296.786L153.137 302.888L163.385 299.99Z" fill="#263238"/>
<path d="M153.054 292.875L144.196 286.772L133.947 289.659L142.818 295.772L153.054 292.875Z" fill="#263238"/>
<path d="M141.098 296.255L132.239 290.153L121.99 293.039L130.849 299.153L141.098 296.255Z" fill="#263238"/>
<path d="M96.5341 288.775L87.6755 282.673L86.8862 282.897L93.8718 289.529L96.5341 288.775Z" fill="#263238"/>
<path d="M175.177 308.118L164.929 311.016L175.554 318.331L185.544 315.257L175.177 308.118Z" fill="#263238"/>
<path d="M163.209 311.499L152.96 314.385L163.904 321.924L173.881 318.849L163.209 311.499Z" fill="#263238"/>
<path d="M117.184 303.005L108.326 296.903L103.178 298.352L110.175 304.996L117.184 303.005Z" fill="#263238"/>
<path d="M185.673 303.724L176.803 297.622L166.554 300.52L175.425 306.622L185.673 303.724Z" fill="#263238"/>
<path d="M127.504 310.132L118.645 304.018L111.33 306.092L118.315 312.724L127.504 310.132Z" fill="#263238"/>
<path d="M137.835 317.247L128.976 311.134L119.47 313.819L126.467 320.452L137.835 317.247Z" fill="#263238"/>
<path d="M149.791 313.866L140.933 307.753L130.684 310.651L139.543 316.764L149.791 313.866Z" fill="#263238"/>
<path d="M207.678 304.277L201.788 300.59L188.83 304.254L198.843 311.157L206.642 308.801C207.155 308.756 207.642 308.55 208.031 308.211C208.419 307.872 208.691 307.419 208.806 306.916C208.921 306.414 208.874 305.888 208.672 305.413C208.469 304.939 208.121 304.542 207.678 304.277Z" fill="#263238"/>
<path d="M139.295 318.249L127.621 321.547L136.81 330.264L150.581 326.023L139.295 318.249Z" fill="#263238"/>
<path d="M190.856 293.652L178.523 297.139L187.381 303.241L200.28 299.601L190.856 293.652Z" fill="#263238"/>
<path d="M187.134 304.737L176.885 307.635L187.205 314.75L197.194 311.675L187.134 304.737Z" fill="#263238"/>
<path d="M115.111 253.435L123.487 251.067L118.08 247.651L109.999 249.913L115.111 253.435Z" fill="#263238"/>
<path d="M162.231 322.442L151.252 314.868L141.003 317.766L152.242 325.517L162.231 322.442Z" fill="#263238"/>
<path d="M116.572 254.448L125.43 260.55L134.466 258.006L125.042 252.057L116.572 254.448Z" fill="#263238"/>
<path d="M137.222 268.678L146.081 274.78L156.4 271.871L146.988 265.922L137.222 268.678Z" fill="#263238"/>
<path d="M126.891 261.563L135.761 267.665L145.433 264.932L136.009 258.983L126.891 261.563Z" fill="#263238"/>
<path d="M147.541 275.794L156.4 281.896L167.367 278.809L157.955 272.849L147.541 275.794Z" fill="#263238"/>
<path d="M157.872 282.909L166.731 289.011L178.334 285.736L168.922 279.787L157.872 282.909Z" fill="#263238"/>
<path d="M179.889 286.714L168.192 290.024L177.05 296.126L189.301 292.674L179.889 286.714Z" fill="#263238"/>
<path d="M104.615 257.829L113.474 263.931L123.722 261.033L114.864 254.931L104.615 257.829Z" fill="#263238"/>
<path d="M83.9175 280.093L85.7316 281.801L86.2028 281.66L83.9175 280.093Z" fill="#263238"/>
<path d="M79.2291 263.578L89.4777 260.68L84.3181 257.122L74.0459 259.997L79.2291 263.578Z" fill="#263238"/>
<path d="M91.1858 260.197L101.434 257.299L96.2983 253.753L86.0261 256.639L91.1858 260.197Z" fill="#263238"/>
<path d="M98.0183 253.282L103.154 256.816L113.403 253.918L108.279 250.396L98.0183 253.282Z" fill="#263238"/>
<path d="M106.853 295.902L97.9947 289.788L95.0261 290.624L102.023 297.257L106.853 295.902Z" fill="#263238"/>
<path d="M139.401 337.45L112.307 227.766C111.69 225.273 110.36 223.013 108.479 221.264L35.4428 153.164C35.1324 152.875 34.7377 152.694 34.3168 152.647C33.8958 152.6 33.4707 152.689 33.1042 152.901C32.7376 153.114 32.4488 153.438 32.2803 153.827C32.1118 154.215 32.0724 154.648 32.168 155.06L56.046 257.452L139.401 337.45Z" fill="#9747FF" stroke="#263238" stroke-linecap="round" stroke-linejoin="round"/>
<path d="M98.4541 216.776L106.806 224.079C106.806 224.079 109.409 224.598 112.013 237.638" stroke="#263238" stroke-width="0.5" stroke-linecap="round" stroke-linejoin="round"/>
<path d="M113.58 244.412L128.976 311.134" stroke="#263238" stroke-width="0.5" stroke-linecap="round" stroke-linejoin="round"/>
<path d="M68.4975 213.795C72.1139 222.583 71.7841 231.053 67.7553 232.714C63.7266 234.375 57.5185 228.591 53.9021 219.756C50.2856 210.921 50.6154 202.498 54.6442 200.849C58.673 199.2 64.881 205.008 68.4975 213.795Z" fill="#9747FF"/>
<path opacity="0.6" d="M68.4975 213.795C72.1139 222.583 71.7841 231.053 67.7553 232.714C63.7266 234.375 57.5185 228.591 53.9021 219.756C50.2856 210.921 50.6154 202.498 54.6442 200.849C58.673 199.2 64.881 205.008 68.4975 213.795Z" fill="white"/>
<path d="M65.8585 228.116C68.722 226.937 68.957 220.914 66.3833 214.663C63.8095 208.413 59.4018 204.302 56.5382 205.481C53.6746 206.66 53.4397 212.683 56.0134 218.933C58.5871 225.184 62.9949 229.295 65.8585 228.116Z" stroke="#263238" stroke-miterlimit="10"/>
<path d="M74.0814 249.83C75.9662 254.389 75.1887 259.031 72.3615 260.197C69.5343 261.363 65.7176 258.607 63.8328 254.059C61.948 249.512 62.7372 244.859 65.5644 243.693C68.3916 242.527 72.2083 245.283 74.0814 249.83Z" fill="#263238"/>
<path d="M70.1822 257.546C68.4034 257.546 66.4715 255.932 65.4702 253.412C64.9065 252.115 64.7108 250.689 64.9048 249.289C64.9565 248.705 65.1598 248.144 65.4945 247.663C65.8292 247.181 66.2837 246.796 66.8131 246.544C68.8039 245.719 71.3484 247.451 72.5971 250.478C73.834 253.506 73.245 256.521 71.2542 257.346C70.9131 257.481 70.5491 257.549 70.1822 257.546ZM67.8262 247.522C67.6238 247.52 67.4233 247.56 67.2372 247.639C66.8987 247.821 66.6125 248.086 66.4062 248.41C66.1999 248.734 66.0804 249.105 66.0592 249.489C65.8907 250.69 66.0621 251.914 66.554 253.023C67.5081 255.379 69.4518 256.863 70.7948 256.309C72.1377 255.756 72.4557 253.317 71.4898 250.985C70.6063 248.923 69.0042 247.522 67.8262 247.522Z" fill="#9747FF"/>
<g opacity="0.5">
<path d="M70.1822 257.546C68.4034 257.546 66.4715 255.932 65.4702 253.412C64.9065 252.115 64.7108 250.689 64.9048 249.289C64.9565 248.705 65.1598 248.144 65.4945 247.663C65.8292 247.181 66.2837 246.796 66.8131 246.544C68.8039 245.719 71.3484 247.451 72.5971 250.478C73.834 253.506 73.245 256.521 71.2542 257.346C70.9131 257.481 70.5491 257.549 70.1822 257.546ZM67.8262 247.522C67.6238 247.52 67.4233 247.56 67.2372 247.639C66.8987 247.821 66.6125 248.086 66.4062 248.41C66.1999 248.734 66.0804 249.105 66.0592 249.489C65.8907 250.69 66.0621 251.914 66.554 253.023C67.5081 255.379 69.4518 256.863 70.7948 256.309C72.1377 255.756 72.4557 253.317 71.4898 250.985C70.6063 248.923 69.0042 247.522 67.8262 247.522Z" fill="white"/>
</g>
<path d="M95.0849 251.291L88.3821 261.893C88.2094 262.151 88.1172 262.454 88.1172 262.765C88.1172 263.075 88.2094 263.379 88.3821 263.637L102.73 284.558C102.856 284.743 103.019 284.901 103.209 285.019C103.4 285.138 103.613 285.215 103.835 285.246C104.057 285.278 104.283 285.262 104.499 285.2C104.714 285.138 104.914 285.032 105.086 284.888L112.519 278.821C112.816 278.582 113.016 278.245 113.083 277.87C113.15 277.496 113.079 277.11 112.884 276.783L97.7943 251.35C97.6594 251.113 97.4651 250.914 97.2306 250.774C96.9961 250.634 96.7293 250.558 96.4563 250.552C96.1833 250.546 95.9134 250.611 95.6731 250.741C95.4327 250.87 95.23 251.06 95.0849 251.291Z" fill="#263238"/>
<path d="M83.4229 265.345C83.4229 265.345 101.988 262.258 114.746 288.41L117.915 284.511C117.915 284.511 105.628 264.049 95.6152 262.223C85.6022 260.397 81.9622 260.385 81.9622 260.385L83.4229 265.345Z" fill="#9747FF"/>
<path opacity="0.5" d="M83.4229 265.345C83.4229 265.345 101.988 262.258 114.746 288.41L117.915 284.511C117.915 284.511 105.628 264.049 95.6152 262.223C85.6022 260.397 81.9622 260.385 81.9622 260.385L83.4229 265.345Z" fill="white"/>
<path d="M13.354 216.907L43.6522 210.062" stroke="#263238" stroke-linecap="round" stroke-linejoin="round"/>
<path d="M195.722 274.875C192.09 275.448 188.428 275.814 184.754 275.97C179.065 276.194 176.65 276.194 177.522 277.513C178.393 278.833 185.202 280.14 187.605 280.576C190.008 281.012 195.722 274.875 195.722 274.875Z" fill="white" stroke="#263238" stroke-miterlimit="10"/>
<path d="M409.364 322.525L399.221 317.224" stroke="#263238" stroke-linecap="round" stroke-linejoin="round"/>
<path d="M206.76 198.717C206.76 198.717 208.892 194.983 209.787 199.612L206.76 198.717Z" fill="#263238"/>
<path d="M392.942 313.937L145.656 184.746" stroke="#263238" stroke-linecap="round" stroke-linejoin="round"/>
<path d="M152.159 235.341L204.121 268.843L246.859 251.409L189.29 222.147L152.159 235.341Z" fill="#263238" stroke="#263238" stroke-linecap="round" stroke-linejoin="round"/>
<path d="M185.555 228.355L164.846 235.671" stroke="white" stroke-width="0.5" stroke-linecap="round" stroke-linejoin="round"/>
<path d="M168.097 238.109L205.464 261.669L235.915 249.889" stroke="white" stroke-width="0.5" stroke-linecap="round" stroke-linejoin="round"/>
<path d="M366.261 77.0295C366.261 77.0295 396.017 81.7416 405.594 97.6917C415.171 113.642 408.327 138.71 405.135 147.368C402.249 155.225 410.777 161.787 416.019 166.051C427.799 175.616 433.866 189.116 427.741 203.806C423.924 212.947 406.949 217.047 409.246 228.049C411.543 239.052 421.544 254.483 408.787 265.887C395.322 277.902 375.119 271.706 363.316 260.479C350.04 247.851 345.469 225.882 352.266 208.907C360.512 188.398 365.024 175.18 357.273 166.499C349.521 157.817 339.497 152.363 339.497 140.064C339.497 127.766 350.44 124.114 354.999 111.792C359.558 99.4705 353.173 86.7245 353.173 86.7245L366.261 77.0295Z" fill="#263238" stroke="#263238" stroke-linecap="round" stroke-linejoin="round"/>
<path d="M394.132 98.3042C399.881 102.651 405.111 109.966 403.297 121.864C399.622 146.013 381.775 147.592 393.319 162.811C404.864 178.031 415.372 171.199 413.263 190.094C411.154 208.989 404.345 215.81 404.345 215.81" stroke="white" stroke-miterlimit="10"/>
<path d="M381.822 92.4968C384.123 93.038 386.359 93.828 388.49 94.8528" stroke="white" stroke-miterlimit="10"/>
<path d="M376.05 99.3291C376.05 99.3291 391.27 103.523 395.993 116.116C400.717 128.708 381.857 139.216 380.774 147.085" stroke="white" stroke-miterlimit="10"/>
<path d="M375.378 304.76C375.166 297.539 375.072 287.903 375.508 277.737C376.427 256.769 401.495 228.956 402.402 223.95C403.309 218.943 401.035 218.06 401.035 218.06L351.347 196.632C328.247 211.804 322.628 255.932 321.249 276.524L375.378 304.76Z" fill="#9747FF" stroke="#263238" stroke-linecap="round" stroke-linejoin="round"/>
<path d="M395.64 219.391C395.64 219.391 399.81 221.994 395.64 226.164C391.47 230.334 379.996 248.063 375.284 258.489" stroke="#263238" stroke-width="0.5" stroke-linecap="round" stroke-linejoin="round"/>
<path d="M373.223 263.672C373.223 263.672 369.571 272.012 370.101 280.352C370.631 288.693 370.619 296.515 370.619 296.515" stroke="#263238" stroke-width="0.5" stroke-linecap="round" stroke-linejoin="round"/>
<path d="M275.755 208.07C277.946 213.772 280.585 226.035 278.829 233.044C277.922 236.684 274.883 244.329 272.186 250.843L339.178 285.854C339.108 271.906 339.284 249.889 341.063 245.802C343.69 239.664 364.729 181.824 363.445 168.678C362.161 155.531 336.716 136.683 336.716 136.683L340.616 104.642L317.397 118.672C317.397 118.672 314.758 131.371 312.132 134.445C309.505 137.52 288.03 141.89 281.892 149.759C275.755 157.628 277.946 181.754 277.946 183.061C277.946 184.369 273.564 202.416 275.755 208.07Z" fill="white"/>
<mask id="mask2_31_3086" style="mask-type:luminance" maskUnits="userSpaceOnUse" x="272" y="104" width="92" height="182">
<path d="M275.755 208.07C277.946 213.772 280.585 226.035 278.829 233.044C277.922 236.684 274.883 244.329 272.186 250.843L339.178 285.854C339.108 271.906 339.284 249.889 341.063 245.802C343.69 239.664 364.729 181.824 363.445 168.678C362.161 155.531 336.716 136.683 336.716 136.683L340.616 104.642L317.397 118.672C317.397 118.672 314.758 131.371 312.132 134.445C309.505 137.52 288.03 141.89 281.892 149.759C275.755 157.628 277.946 181.754 277.946 183.061C277.946 184.369 273.564 202.416 275.755 208.07Z" fill="white"/>
</mask>
<g mask="url(#mask2_31_3086)">
<g style="mix-blend-mode:multiply" opacity="0.5">
<path d="M363.41 168.631C362.091 155.484 336.681 136.636 336.681 136.636L340.616 104.642L317.397 118.672C317.397 118.672 316.631 122.335 315.524 126.211C317.02 126.081 318.693 125.869 320.566 125.54C329.425 123.973 334.125 120.828 334.125 120.828L329.413 140.642C329.413 140.642 353.397 154.778 359.652 171.929C360.5 174.285 361.407 176.488 362.338 178.679C363.131 175.391 363.491 172.013 363.41 168.631Z" fill="#9747FF"/>
</g>
</g>
<path d="M275.755 208.07C277.946 213.772 280.585 226.035 278.829 233.044C277.922 236.684 274.883 244.329 272.186 250.843L339.178 285.854C339.108 271.906 339.284 249.889 341.063 245.802C343.69 239.664 364.729 181.824 363.445 168.678C362.161 155.531 336.716 136.683 336.716 136.683L340.616 104.642L317.397 118.672C317.397 118.672 314.758 131.371 312.132 134.445C309.505 137.52 288.03 141.89 281.892 149.759C275.755 157.628 277.946 181.754 277.946 183.061C277.946 184.369 273.564 202.416 275.755 208.07Z" stroke="#263238" stroke-linecap="round" stroke-linejoin="round"/>
<path d="M275.755 208.07C277.946 213.772 280.585 226.035 278.829 233.044C277.922 236.684 274.883 244.329 272.186 250.843L339.178 285.854C339.108 271.906 339.284 249.889 341.063 245.802C343.69 239.664 364.729 181.824 363.445 168.678C362.632 160.491 352.478 150.113 344.927 143.433C337.494 151.314 321.367 166.016 309.587 159.466C298.985 153.576 299.656 144.623 301.223 139.299C294.061 141.937 285.497 145.306 281.975 149.83C275.837 157.723 278.028 181.824 278.028 183.132C278.028 184.44 273.564 202.416 275.755 208.07Z" fill="#263238" stroke="#263238" stroke-linecap="round" stroke-linejoin="round"/>
<path d="M314.888 192.497L300.304 185.653C300.304 185.653 296.193 178.821 293.92 178.821C291.646 178.821 290.268 188.398 290.268 188.398C290.268 188.398 282.528 195.69 285.261 202.981C287.994 210.273 298.019 221.217 310.329 217.117C322.639 213.018 318.988 200.26 318.988 200.26C318.988 200.26 324.006 191.602 324.006 189.776C324.006 187.95 314.888 192.497 314.888 192.497Z" fill="white" stroke="#263238" stroke-linecap="round" stroke-linejoin="round"/>
<path d="M283.647 51.1725C283.647 51.1725 286.722 66.9577 286.274 77.9131C285.827 88.8685 281.456 93.2271 282.74 98.0686C284.024 102.91 299.833 120.863 309.469 122.606C319.105 124.35 341.9 109.46 348.473 102.887C355.046 96.3134 355.918 86.6774 355.046 82.7311C354.174 78.7848 350.664 47.2379 337.517 34.5273C324.371 21.8167 289.785 23.1361 283.647 51.1725Z" fill="white"/>
<mask id="mask3_31_3086" style="mask-type:luminance" maskUnits="userSpaceOnUse" x="282" y="26" width="74" height="97">
<path d="M283.647 51.1725C283.647 51.1725 286.722 66.9577 286.274 77.9131C285.827 88.8685 281.456 93.2271 282.74 98.0686C284.024 102.91 299.833 120.863 309.469 122.606C319.105 124.35 341.9 109.46 348.473 102.887C355.046 96.3134 355.918 86.6774 355.046 82.7311C354.174 78.7848 350.664 47.2379 337.517 34.5273C324.371 21.8167 289.785 23.1361 283.647 51.1725Z" fill="white"/>
</mask>
<g mask="url(#mask3_31_3086)">
<g style="mix-blend-mode:multiply" opacity="0.5">
<path d="M337.588 34.5274C332.676 29.8154 324.76 26.9882 316.455 26.8115L315.913 43.1622C315.913 43.1622 313.298 59.3243 322.686 72.353C332.075 85.3817 340.415 89.0453 341.452 94.252C342.489 99.4588 337.777 104.642 325.808 113.548C321.128 117.09 316.113 120.167 310.836 122.736C321.096 123.101 342.241 109.189 348.532 102.887C355.105 96.3135 355.977 86.6775 355.105 82.7312C354.233 78.7849 350.699 47.238 337.588 34.5274Z" fill="#9747FF"/>
</g>
</g>
<path d="M283.647 51.1725C283.647 51.1725 286.722 66.9577 286.274 77.9131C285.827 88.8685 281.456 93.2271 282.74 98.0686C284.024 102.91 299.833 120.863 309.469 122.606C319.105 124.35 341.9 109.46 348.473 102.887C355.046 96.3134 355.918 86.6774 355.046 82.7311C354.174 78.7848 350.664 47.2379 337.517 34.5273C324.371 21.8167 289.785 23.1361 283.647 51.1725Z" stroke="#263238" stroke-linecap="round" stroke-linejoin="round"/>
<path d="M300.305 83.6028C300.305 83.6028 298.985 91.9312 296.771 94.5582C298.49 96.058 300.636 96.9808 302.908 97.1969" stroke="#263238" stroke-linecap="round" stroke-linejoin="round"/>
<path d="M301.176 104.642C304.031 105.907 307.142 106.488 310.262 106.336C313.381 106.185 316.421 105.306 319.141 103.77" stroke="#263238" stroke-linecap="round" stroke-linejoin="round"/>
<path d="M316.95 79.2207C316.95 80.6814 316.266 81.8594 315.418 81.8594C314.57 81.8594 313.887 80.6814 313.887 79.2207C313.887 77.76 314.57 76.5938 315.418 76.5938C316.266 76.5938 316.95 77.7717 316.95 79.2207Z" fill="#263238"/>
<path d="M295.263 75.7219C295.263 77.1708 294.579 78.3488 293.731 78.3488C292.883 78.3488 292.2 77.1708 292.2 75.7219C292.2 74.273 292.883 73.095 293.731 73.095C294.579 73.095 295.263 74.273 295.263 75.7219Z" fill="#263238"/>
<path d="M289.349 64.3308C290.578 63.5637 291.949 63.0516 293.379 62.8249C294.81 62.5983 296.272 62.6617 297.678 63.0115" stroke="#263238" stroke-linecap="round" stroke-linejoin="round"/>
<path d="M309.94 64.7666C309.94 64.7666 312.567 63.4473 318.269 66.9577" stroke="#263238" stroke-linecap="round" stroke-linejoin="round"/>
<path d="M312.567 39.3454C312.567 39.3454 300.304 49.4291 294.167 55.5547C288.03 61.6803 285.403 66.0743 276.202 62.1397C267.002 58.2052 260.417 44.5993 272.668 28.39C284.92 12.1807 308.609 7.35095 331.828 13.9242C355.046 20.4974 364.706 35.3991 366.449 51.6202C368.192 67.8413 364.682 85.794 356.436 90.6238C348.19 95.4536 329.695 75.7221 323.122 63.4473C319.003 55.69 315.475 47.6332 312.567 39.3454Z" fill="#263238" stroke="#263238" stroke-linecap="round" stroke-linejoin="round"/>
<path d="M312.568 39.3455C312.568 39.3455 279.478 44.2224 277.911 51.5613C276.344 58.9003 286.31 56.8152 286.31 56.8152" stroke="white" stroke-miterlimit="10"/>
<path d="M273.646 44.187C271.408 48.9697 273.187 52.0914 273.187 52.0914" stroke="white" stroke-miterlimit="10"/>
<path d="M345.61 23.7486C345.61 23.7486 313.592 18.5065 313.592 32.666C313.592 32.666 294.179 25.8454 281.586 35.293C279.696 36.6708 277.962 38.2509 276.415 40.005" stroke="white" stroke-miterlimit="10"/>
<path d="M315.206 35.8232C315.206 35.8232 323.37 62.1633 340.403 68.8897" stroke="white" stroke-miterlimit="10"/>
<path d="M332.193 42.9028C338.754 48.3216 348.143 53.6698 359.287 53.1397" stroke="white" stroke-miterlimit="10"/>
<path d="M321.991 32.1477C323.526 34.2577 325.211 36.2538 327.033 38.1202" stroke="white" stroke-miterlimit="10"/>
<path d="M280.585 66.5219L331.851 75.2862C331.851 75.2862 331.851 83.0846 329.66 87.0662C327.469 91.0479 324.842 91.095 319.141 91.095C313.439 91.095 305.511 87.561 305.122 86.277C304.215 83.1671 304.828 72.9067 304.828 72.9067L300.74 72.247C300.74 72.247 301.27 84.2037 299.079 85.5231C296.888 86.8424 282.422 84.2037 279.795 80.705C277.169 77.2064 278.829 66.0743 280.585 66.5219Z" stroke="#263238" stroke-linecap="round" stroke-linejoin="round"/>
<path d="M331.851 75.2862L354.646 71.3398V74.4027L331.851 80.1042V75.2862Z" fill="#9747FF" stroke="#263238" stroke-linecap="round" stroke-linejoin="round"/>
<path d="M371.468 78.0139C373.249 66.9334 369.074 57.0478 362.143 55.934C355.212 54.8201 348.15 62.8996 346.369 73.9802C344.588 85.0607 348.763 94.9462 355.694 96.0601C362.625 97.174 369.687 89.0944 371.468 78.0139Z" fill="#9747FF" stroke="#263238" stroke-linecap="round" stroke-linejoin="round"/>
<path d="M375.131 78.4549C373.635 87.7847 368.44 94.6995 363.551 93.9103C358.662 93.121 355.894 84.9339 357.39 75.6042C358.886 66.2744 364.069 59.3713 368.97 60.1606C373.87 60.9498 376.627 69.1369 375.131 78.4549Z" fill="#9747FF" stroke="#263238" stroke-linecap="round" stroke-linejoin="round"/>
<path d="M368.216 39.3453C369.063 51.6088 367.727 63.9253 364.27 75.7219C364.27 75.7219 363.834 82.7899 370.407 79.6682C376.981 76.5465 376.109 49.8648 375.225 38.9094C374.342 27.954 366.037 31.0168 368.216 39.3453Z" fill="white" stroke="#263238" stroke-linecap="round" stroke-linejoin="round"/>
<path d="M343.69 18.7421C343.69 18.7421 353.762 16.1152 359.004 25.3272C364.246 34.5391 363.386 42.8558 370.784 43.7275C378.182 44.5992 378.677 36.2826 374.731 25.763C370.784 15.2435 362.468 7.35087 351.065 6.47915C339.661 5.60743 334.054 14.8076 334.054 14.8076C334.054 14.8076 340.18 15.6793 343.69 18.7421Z" fill="#9747FF" stroke="#263238" stroke-linecap="round" stroke-linejoin="round"/>
<path d="M342.807 182.649L312.567 251.456C312.567 251.456 230.178 266.77 222.733 266.77C215.288 266.77 200.351 272.024 197.312 273.838C194.273 275.652 164.481 289.329 170.218 290.177C173.752 290.707 182.893 285.677 182.893 285.677C182.893 285.677 168.427 292.745 169.735 294.877C171.043 297.009 188.583 288.304 188.583 288.304C188.583 288.304 172.55 297.728 175.837 298.258C178.829 298.788 182.446 297.08 185.52 294.877C188.202 293.231 191.089 291.948 194.108 291.06C194.108 291.06 187.04 295.772 186.203 297.916C185.367 300.06 187.959 298.788 190.586 297.916C195.501 295.796 200.254 293.316 204.804 290.495C206.547 289.176 211.813 286.549 215.324 283.486L222.333 277.349C222.333 277.349 269.217 278.656 290.657 277.784C312.096 276.913 322.651 274.722 330.544 266.829C338.436 258.936 360.783 208.977 366.037 195.395C371.291 181.813 367.792 173.92 362.503 164.767" fill="white"/>
<mask id="mask4_31_3086" style="mask-type:luminance" maskUnits="userSpaceOnUse" x="169" y="164" width="200" height="136">
<path d="M342.807 182.649L312.567 251.456C312.567 251.456 230.178 266.77 222.733 266.77C215.288 266.77 200.351 272.024 197.312 273.838C194.273 275.652 164.481 289.329 170.218 290.177C173.752 290.707 182.893 285.677 182.893 285.677C182.893 285.677 168.427 292.745 169.735 294.877C171.043 297.009 188.583 288.304 188.583 288.304C188.583 288.304 172.55 297.728 175.837 298.258C178.829 298.788 182.446 297.08 185.52 294.877C188.202 293.231 191.089 291.948 194.108 291.06C194.108 291.06 187.04 295.772 186.203 297.916C185.367 300.06 187.959 298.788 190.586 297.916C195.501 295.796 200.254 293.316 204.804 290.495C206.547 289.176 211.813 286.549 215.324 283.486L222.333 277.349C222.333 277.349 269.217 278.656 290.657 277.784C312.096 276.913 322.651 274.722 330.544 266.829C338.436 258.936 360.783 208.977 366.037 195.395C371.291 181.813 367.792 173.92 362.503 164.767" fill="white"/>
</mask>
<g mask="url(#mask4_31_3086)">
<g style="mix-blend-mode:multiply" opacity="0.5">
<path d="M344.032 227.731C329.896 254.319 317.963 262.659 305.452 268.961C292.942 275.264 224.111 276.783 224.111 276.783L227.009 277.478C239.437 277.784 273.328 278.503 290.621 277.796C312.096 276.924 322.616 274.733 330.508 266.841C338.401 258.948 360.748 208.989 366.001 195.407C368.44 189.116 368.982 184.051 368.357 179.504L365.377 181.377C359.202 197.244 352.074 212.724 344.032 227.731Z" fill="#9747FF"/>
</g>
</g>
<path d="M342.807 182.649L312.567 251.456C312.567 251.456 230.178 266.77 222.733 266.77C215.288 266.77 200.351 272.024 197.312 273.838C194.273 275.652 164.481 289.329 170.218 290.177C173.752 290.707 182.893 285.677 182.893 285.677C182.893 285.677 168.427 292.745 169.735 294.877C171.043 297.009 188.583 288.304 188.583 288.304C188.583 288.304 172.55 297.728 175.837 298.258C178.829 298.788 182.446 297.08 185.52 294.877C188.202 293.231 191.089 291.948 194.108 291.06C194.108 291.06 187.04 295.772 186.203 297.916C185.367 300.06 187.959 298.788 190.586 297.916C195.501 295.796 200.254 293.316 204.804 290.495C206.547 289.176 211.813 286.549 215.324 283.486L222.333 277.349C222.333 277.349 269.217 278.656 290.657 277.784C312.096 276.913 322.651 274.722 330.544 266.829C338.436 258.936 360.783 208.977 366.037 195.395C371.291 181.813 367.792 173.92 362.503 164.767" stroke="#263238" stroke-miterlimit="10"/>
<path d="M342.3 180.917L333.1 204.772C339.862 201.167 352.549 196.326 362.668 203.594C364.093 200.248 365.259 197.421 366.037 195.407C371.302 181.824 367.792 173.932 362.503 164.779" fill="#263238"/>
<path d="M342.3 180.917L333.1 204.772C339.862 201.167 352.549 196.326 362.668 203.594C364.093 200.248 365.259 197.421 366.037 195.407C371.302 181.824 367.792 173.932 362.503 164.779" stroke="#263238" stroke-linecap="round" stroke-linejoin="round"/>
<path d="M277.192 212.57C268.298 215.174 233.17 225.458 229.907 226.223C227.886 226.715 225.836 227.081 223.77 227.319C223.77 227.319 211.495 222.053 208.208 219.65C204.922 217.247 200.975 218.767 199.008 219.65C197.041 220.534 195.474 226.659 199.232 226.659C202.99 226.659 203.614 226.435 207.773 229.946C211.931 233.456 211.943 235.211 215.005 236.519C218.068 237.827 223.122 236.955 225.749 236.519C228.105 236.13 268.84 233.421 278.865 232.891C280.172 227.378 278.865 218.767 277.192 212.57Z" fill="white"/>
<mask id="mask5_31_3086" style="mask-type:luminance" maskUnits="userSpaceOnUse" x="196" y="212" width="84" height="26">
<path d="M277.192 212.57C268.298 215.174 233.17 225.458 229.907 226.223C227.886 226.715 225.836 227.081 223.77 227.319C223.77 227.319 211.495 222.053 208.208 219.65C204.922 217.247 200.975 218.767 199.008 219.65C197.041 220.534 195.474 226.659 199.232 226.659C202.99 226.659 203.614 226.435 207.773 229.946C211.931 233.456 211.943 235.211 215.005 236.519C218.068 237.827 223.122 236.955 225.749 236.519C228.105 236.13 268.84 233.421 278.865 232.891C280.172 227.378 278.865 218.767 277.192 212.57Z" fill="white"/>
</mask>
<g mask="url(#mask5_31_3086)">
<g style="mix-blend-mode:multiply" opacity="0.5">
<path d="M278.594 218.908L225.749 236.578C228.105 236.189 268.84 233.48 278.865 232.95C279.76 229.109 279.43 223.867 278.594 218.908Z" fill="#9747FF"/>
</g>
</g>
<path d="M277.192 212.57C268.298 215.174 233.17 225.458 229.907 226.223C227.886 226.715 225.836 227.081 223.77 227.319C223.77 227.319 211.495 222.053 208.208 219.65C204.922 217.247 200.975 218.767 199.008 219.65C197.041 220.534 195.474 226.659 199.232 226.659C202.99 226.659 203.614 226.435 207.773 229.946C211.931 233.456 211.943 235.211 215.005 236.519C218.068 237.827 223.122 236.955 225.749 236.519C228.105 236.13 268.84 233.421 278.865 232.891C280.172 227.378 278.865 218.767 277.192 212.57Z" stroke="#263238" stroke-linecap="round" stroke-linejoin="round"/>
<path d="M189.36 226.883C189.36 226.883 184.754 229.51 183.47 232.573C182.186 235.636 184.778 234.764 185.661 234.116C186.545 233.468 190.267 230.382 190.267 230.382L189.36 226.883Z" fill="white" stroke="#263238" stroke-linecap="round" stroke-linejoin="round"/>
<path d="M190.68 224.68C189.817 225.233 189.135 226.026 188.717 226.962C188.298 227.897 188.162 228.934 188.324 229.946C188.76 233.668 192.706 239.146 193.154 236.955C193.601 234.764 190.68 224.68 190.68 224.68Z" fill="white" stroke="#263238" stroke-linecap="round" stroke-linejoin="round"/>
<path d="M196.157 221.394C196.157 221.394 191.987 222.489 190.68 224.68C189.372 226.871 191.551 236.307 193.095 236.955C193.422 237.102 193.779 237.172 194.137 237.161C194.496 237.149 194.847 237.055 195.164 236.887C195.481 236.719 195.756 236.481 195.967 236.19C196.178 235.9 196.319 235.565 196.381 235.212C196.817 233.668 196.157 221.394 196.157 221.394Z" fill="white" stroke="#263238" stroke-linecap="round" stroke-linejoin="round"/>
<path d="M201.423 219.202C201.423 219.202 195.934 219.202 195.286 221.841C194.638 224.48 193.53 235.859 194.626 237.615C195.722 239.37 197.477 238.71 198.349 236.519C199.22 234.328 201.423 219.202 201.423 219.202Z" fill="white" stroke="#263238" stroke-linecap="round" stroke-linejoin="round"/>
<path d="M206.406 198.788L197.406 239.77L198.82 245.001C198.841 245.081 198.883 245.154 198.941 245.213C199 245.271 199.073 245.313 199.153 245.335C199.233 245.356 199.317 245.357 199.397 245.335C199.477 245.314 199.55 245.271 199.609 245.213L203.543 241.302L210.117 199.883L206.406 198.788Z" fill="#263238"/>
<path d="M215.229 231.866C215.229 231.866 210.187 233.845 206.241 235.6C202.295 237.355 198.348 238.227 198.784 240.642C199.22 243.057 200.975 242.173 203.826 241.302C207.738 239.938 211.78 238.982 215.889 238.451C221.367 237.791 225.749 232.749 225.749 232.749" fill="white"/>
<path d="M215.229 231.866C215.229 231.866 210.187 233.845 206.241 235.6C202.295 237.355 198.348 238.227 198.784 240.642C199.22 243.057 200.975 242.173 203.826 241.302C207.738 239.938 211.78 238.982 215.889 238.451C221.367 237.791 225.749 232.749 225.749 232.749" stroke="#263238" stroke-linecap="round" stroke-linejoin="round"/>
<path d="M197.524 240.406L198.443 244.27C198.488 244.457 198.581 244.628 198.713 244.767C198.845 244.906 199.01 245.008 199.194 245.063C199.378 245.118 199.572 245.123 199.759 245.079C199.945 245.035 200.117 244.943 200.257 244.812L202.413 242.762" stroke="white" stroke-width="0.5" stroke-linecap="round" stroke-linejoin="round"/>
<path d="M197.418 239.77L202.071 219.014" stroke="white" stroke-width="0.5" stroke-linecap="round" stroke-linejoin="round"/>
<path d="M36.4207 158.382L95.8507 213.654" stroke="#263238" stroke-width="0.5" stroke-linecap="round" stroke-linejoin="round"/>
</g>
<defs>
<clipPath id="clip0_31_3086">
<rect width="476" height="377.024" fill="white" transform="translate(0 0.976318)"/>
</clipPath>
</defs>
</svg>
