<svg width="749" height="558" viewBox="0 0 749 558" fill="none" xmlns="http://www.w3.org/2000/svg">
<g clip-path="url(#clip0_158_5)">
<path d="M51.0161 470.657C47.4165 470.657 43.8094 470.828 40.2868 471.173L39.7741 471.223C16.4087 473.601 -0.681967 487.396 0.0209135 503.312L0.156793 506.19C0.246403 508.01 0.341875 509.966 0.420465 512.136C0.463015 513.206 1.73151 514.027 3.30991 514.027H578.042C618.564 513.744 658.938 513.388 698.038 512.968C705.376 512.985 712.708 512.548 719.992 511.658C730.858 510.178 738.399 507.243 743.05 502.687H743.052C748.835 497.036 749.017 489.921 748.667 481.882C747.955 465.649 747.248 448.597 746.543 431.596C745.92 416.612 745.301 401.669 744.681 387.362C744.297 378.872 743.445 371.378 736.878 365.65C729.759 359.456 716.776 356.316 698.289 356.316C698.066 356.316 697.844 356.316 697.618 356.317C639.682 356.555 582.276 379.488 554.772 413.385C551.605 417.288 548.654 421.467 545.8 425.509C541.628 431.714 537.023 437.616 532.02 443.173C529.241 446.168 526.194 448.902 522.916 451.342C522.693 451.519 522.437 451.71 522.167 451.891C521.549 452.354 520.902 452.802 520.272 453.2C516.628 455.63 512.736 457.666 508.663 459.276L508.256 459.434C507.95 459.56 507.618 459.686 507.286 459.801C504.938 460.667 502.544 461.404 500.116 462.007C489.632 464.667 477.71 465.305 464.684 463.9C452.653 462.56 440.826 459.786 429.455 455.636C417.392 451.247 406.102 445.775 395.183 440.484C390.387 438.159 385.426 435.756 380.472 433.478C379.541 433.05 378.625 432.631 377.695 432.212C371.644 429.497 366.158 427.255 360.924 425.357C348.067 420.661 334.614 417.793 320.96 416.836C306.551 415.928 293.853 417.641 283.228 421.915C280.276 423.1 277.423 424.516 274.693 426.148C262.108 433.672 254.35 444.775 246.848 455.514C237.516 468.87 227.865 482.683 208.81 489.843C186.822 498.112 154.726 494.677 132.019 488.702C124.88 486.823 117.749 484.662 110.853 482.571C108.068 481.726 105.281 480.888 102.492 480.055C97.0112 478.426 92.5257 477.178 88.3759 476.124L87.0633 475.788C86.3333 475.605 85.6025 475.423 84.8584 475.249C79.9293 474.058 75.3395 473.12 70.8195 472.383L69.7501 472.203C67.6061 471.878 65.6017 471.607 63.6348 471.38L62.8497 471.29C58.9195 470.865 54.9692 470.654 51.0161 470.657Z" fill="#F2F2F2"/>
<path d="M118.055 513.952C118.054 513.636 118.178 513.333 118.401 513.109C118.623 512.885 118.926 512.758 119.242 512.757H629.536C629.85 512.759 630.152 512.885 630.374 513.108C630.596 513.331 630.72 513.633 630.72 513.948C630.72 514.262 630.596 514.564 630.374 514.788C630.152 515.011 629.85 515.137 629.536 515.138H119.242C118.927 515.137 118.626 515.012 118.404 514.79C118.181 514.567 118.056 514.266 118.055 513.952Z" fill="#CACACA"/>
<path d="M520.42 43.0401C520.437 53.8856 516.341 64.3344 508.96 72.28C508.4 72.89 507.81 73.48 507.21 74.05C484.966 56.9294 461.637 41.2666 437.37 27.16C437.67 26.4 437.99 25.65 438.34 24.91C442.469 16.02 449.509 8.80579 458.296 4.46045C467.082 0.115097 477.089 -1.10105 486.66 1.01313C496.232 3.12732 504.795 8.4452 510.934 16.0873C517.072 23.7293 520.419 33.2378 520.42 43.0401Z" fill="#FF6584"/>
<path d="M555.329 130.64L555.289 131.09C526.979 129.14 498.673 127.187 470.369 125.23C449.919 123.82 428.759 122.22 410.689 112.54C403.829 108.87 397.149 103.97 389.369 103.63C379.719 103.2 371.299 109.95 364.679 116.99C325.549 158.67 314.219 222.4 270.319 259.01C298.007 190.731 331.064 124.754 369.179 61.7C376.219 50.05 384.569 37.61 397.639 33.81C410.109 30.18 422.869 35.48 434.349 42.28C436.809 43.74 439.21 45.27 441.53 46.79C459.22 58.37 476.619 70.3933 493.729 82.86C514.739 98.15 535.273 114.077 555.329 130.64Z" fill="#F2F2F2"/>
<path d="M646.89 219.04C616.63 176.328 581.474 137.306 542.14 102.77C530.83 92.8301 519.186 83.2567 507.21 74.05C484.966 56.9294 461.637 41.2666 437.369 27.1601C429.409 22.5401 421.356 18.1034 413.21 13.8501C406.88 10.5601 400.14 7.55005 392.84 8.02005C387.732 8.45657 382.854 10.3325 378.769 13.4301C369.799 19.9801 363.86 30.2101 358.97 39.9601C354.69 48.5101 350.699 57.2301 346.629 65.9001C344.899 69.5901 343.169 73.2701 341.379 76.9301C335.139 89.7501 328.753 102.5 322.22 115.18C313.8 131.52 305.136 147.737 296.229 163.83C277.519 197.66 257.776 230.88 236.999 263.49C206.459 311.42 173.786 357.897 138.979 402.92C134.709 408.43 132.949 409.71 128.619 415.18C127.619 416.46 125.839 414.66 126.829 413.39C162.94 367.75 194.38 324.63 226.079 275.81C249.979 239 272.566 201.373 293.84 162.93C300.67 150.6 307.356 138.193 313.899 125.71C324.489 105.5 334.713 85.1001 344.569 64.5101C347.169 59.0901 349.743 53.6501 352.289 48.1901C360.379 30.8601 372.16 5.09005 394.91 5.44005C401.6 5.54005 407.809 8.25005 413.669 11.25C419.639 14.32 425.499 17.58 431.349 20.89C433.689 22.21 436.02 23.5501 438.34 24.9101C447.53 30.25 456.583 35.8133 465.499 41.6001C480.379 51.25 494.866 61.4767 508.96 72.28C515.65 77.41 522.239 82.6567 528.729 88.0201C569.452 121.711 606.067 160.079 637.819 202.33C641.649 207.42 645.399 212.567 649.069 217.77C650.01 219.1 647.82 220.36 646.89 219.04Z" fill="#E4E4E4"/>
<path d="M544.392 90.0423C545.714 88.5687 547.027 87.0952 548.358 85.6216C558.85 74.0182 570.107 62.5496 584.515 55.8975C591.384 52.6255 598.884 50.8872 606.492 50.8031C614.357 50.8284 622.045 52.8914 629.311 55.7796C632.747 57.1522 636.107 58.7099 639.416 60.3687C643.197 62.2717 646.91 64.3011 650.606 66.3472C657.545 70.187 664.394 74.1951 671.152 78.3716C684.6 86.6825 697.626 95.6278 710.231 105.207C716.766 110.175 723.165 115.306 729.43 120.6C735.257 125.517 740.966 130.567 746.557 135.748C747.753 136.851 749.538 135.066 748.342 133.963C746.869 132.591 745.378 131.226 743.888 129.879C739.678 126.073 735.4 122.34 731.055 118.68C723.132 111.994 715.003 105.567 706.67 99.3973C693.711 89.7981 680.305 80.85 666.454 72.5531C659.532 68.4103 652.515 64.4414 645.403 60.6466C643.256 59.5014 641.083 58.3815 638.885 57.3205C633.899 54.8052 628.718 52.6961 623.392 51.0137C615.848 48.5732 607.866 47.7891 599.992 48.7149C592.388 49.8209 585.063 52.355 578.402 56.1838C564.255 64.0906 553.284 76.317 542.607 88.2487C541.528 89.4613 543.305 91.2548 544.392 90.0423Z" fill="#E4E4E4"/>
<path d="M254.542 210.284L220.644 197.885L203.813 191.73C198.332 189.725 192.864 187.442 187.197 186.007C182.273 184.6 177.045 184.667 172.158 186.198C167.8 187.811 163.81 190.284 160.427 193.47C156.971 196.653 153.755 200.087 150.806 203.745C147.142 208.149 143.531 212.599 139.905 217.033C124.938 235.337 110.07 253.72 95.2987 272.183C80.5281 290.645 65.8562 309.186 51.2831 327.805C36.6744 346.47 22.1662 365.212 7.7584 384.033C5.99342 386.339 4.22995 388.646 2.468 390.954C1.49454 392.229 -0.700444 390.972 0.286756 389.679C14.8008 370.669 29.4161 351.736 44.1325 332.882C58.8851 313.982 73.7396 295.163 88.6961 276.424C103.652 257.685 118.709 239.028 133.868 220.451C137.644 215.824 141.427 211.201 145.216 206.583C148.412 202.688 151.572 198.751 155.077 195.125C161.512 188.47 169.551 182.589 179.174 182.43C184.832 182.336 190.308 184.131 195.564 186.033C201.231 188.083 206.885 190.171 212.544 192.241L246.679 204.726L255.213 207.848C256.727 208.402 256.073 210.844 254.542 210.284Z" fill="#E4E4E4"/>
<path d="M588.976 70.498C606.202 61.6446 628.262 63.3786 644.092 74.4396C613.898 79.6487 584.035 86.6187 554.655 95.3138C566.855 88.1641 576.399 76.962 588.976 70.498Z" fill="#F2F2F2"/>
<path d="M644.261 74.4091L647.578 77.1046C646.456 76.1611 645.29 75.2766 644.092 74.4396C644.148 74.4298 644.205 74.4188 644.261 74.4091Z" fill="#F2F2F2"/>
<path d="M161.704 210.407C165.04 206.346 168.648 202.093 173.639 200.443L178.299 200.627C142.827 263.306 94.9207 318.075 37.5191 361.571C78.914 311.183 120.309 260.795 161.704 210.407Z" fill="#F2F2F2"/>
<path d="M511.208 438.943L482.991 426.494V415.792L493.047 415.736C494.608 415.727 496.126 415.229 497.39 414.313C498.653 413.397 499.598 412.109 500.091 410.628L507.156 389.435C507.53 388.313 507.632 387.117 507.454 385.947C507.275 384.777 506.821 383.666 506.129 382.706C505.437 381.746 504.527 380.964 503.473 380.425C502.42 379.885 501.253 379.604 500.07 379.604H482.991V369.645H504.432C506.122 369.645 507.762 369.072 509.084 368.019C510.406 366.966 511.332 365.497 511.711 363.849L516.576 342.686C516.828 341.592 516.829 340.455 516.58 339.36C516.332 338.264 515.839 337.239 515.14 336.361C514.44 335.482 513.552 334.772 512.54 334.285C511.528 333.797 510.42 333.544 509.297 333.544H482.991V331.054C482.991 329.733 482.467 328.467 481.533 327.533C480.599 326.599 479.332 326.075 478.012 326.075C476.691 326.075 475.425 326.599 474.491 327.533C473.557 328.467 473.032 329.733 473.032 331.054V333.544H296.675V331.054C296.675 329.733 296.15 328.467 295.217 327.533C294.283 326.599 293.016 326.075 291.696 326.075C290.375 326.075 289.108 326.599 288.175 327.533C287.241 328.467 286.716 329.733 286.716 331.054V333.544H265.805C264.682 333.544 263.574 333.797 262.562 334.285C261.55 334.772 260.662 335.482 259.962 336.361C259.262 337.239 258.77 338.264 258.521 339.36C258.273 340.455 258.274 341.592 258.526 342.686L263.391 363.849C263.77 365.497 264.696 366.966 266.018 368.019C267.34 369.072 268.98 369.645 270.67 369.645H286.716V379.604H275.032C273.855 379.604 272.694 379.882 271.645 380.416C270.596 380.95 269.688 381.724 268.994 382.676C268.301 383.627 267.843 384.729 267.657 385.891C267.47 387.054 267.562 388.244 267.923 389.364L275.133 411.741C275.62 413.252 276.576 414.569 277.861 415.5C279.147 416.431 280.697 416.929 282.284 416.92L286.716 416.895V426.494L263.893 438.943C262.913 438.943 261.941 439.136 261.035 439.512C260.129 439.887 259.305 440.437 258.612 441.131C257.918 441.824 257.368 442.648 256.993 443.554C256.617 444.46 256.424 445.431 256.424 446.412C256.424 448.393 257.211 450.293 258.612 451.694C260.013 453.095 261.912 453.882 263.893 453.882H286.716V508.656C286.716 509.977 287.241 511.243 288.175 512.177C289.108 513.111 290.375 513.636 291.696 513.636C293.016 513.636 294.283 513.111 295.217 512.177C296.151 511.243 296.675 509.977 296.675 508.656V453.882H473.032V508.656C473.032 509.977 473.557 511.243 474.491 512.177C475.425 513.111 476.691 513.636 478.012 513.636C479.332 513.636 480.599 513.111 481.533 512.177C482.467 511.243 482.991 509.977 482.991 508.656V453.882H511.208C513.189 453.882 515.089 453.095 516.49 451.694C517.891 450.293 518.678 448.393 518.678 446.412C518.678 445.431 518.484 444.46 518.109 443.554C517.734 442.648 517.184 441.824 516.49 441.131C515.796 440.437 514.973 439.887 514.067 439.512C513.161 439.136 512.189 438.943 511.208 438.943ZM296.675 369.645H473.032V379.604H296.675V369.645ZM296.675 426.494V416.839L473.032 415.848V426.494H296.675Z" fill="#CCCCCC"/>
<path d="M90.3704 417.814L98.3552 391.81C88.7479 381.236 76.7047 373.167 63.2713 368.304C76.3958 390.047 63.6782 418.412 68.9778 443.25C70.69 450.984 74.1207 458.234 79.0157 464.462C83.9107 470.69 90.1444 475.737 97.2549 479.228L109.372 494.241C115.724 483.143 119.595 470.8 120.718 458.061C121.84 445.323 120.188 432.493 115.874 420.455C113.387 413.725 110.063 407.336 105.98 401.437C98.7793 409.902 90.3704 417.814 90.3704 417.814Z" fill="#F2F2F2"/>
<path d="M46.4651 421.137L42.0143 394.301C28.6997 389.121 14.322 387.27 0.1297 388.909C21.5737 402.517 22.8409 433.576 38.6617 453.444C43.6435 459.602 49.9474 464.561 57.1061 467.952C64.2649 471.344 72.0951 473.08 80.0164 473.034L97.5573 481.068C98.2933 468.302 96.2528 455.527 91.5764 443.625C86.9001 431.724 79.6991 420.977 70.4696 412.126C65.2427 407.212 59.4177 402.976 53.1322 399.517C50.4627 410.305 46.4651 421.137 46.4651 421.137Z" fill="#F2F2F2"/>
<path d="M676.925 307.719L659.459 286.864C664.2 273.387 672.159 261.271 682.645 251.568C679.006 276.703 701.75 297.892 706.524 322.837C707.953 330.628 707.611 338.641 705.522 346.282C703.434 353.923 699.652 360.997 694.458 366.978L689.131 385.521C678.964 377.765 670.599 367.898 664.612 356.598C658.626 345.298 655.16 332.835 654.454 320.067C654.129 312.9 654.708 305.721 656.177 298.698C666.102 303.698 676.925 307.719 676.925 307.719Z" fill="#F2F2F2"/>
<path d="M718.669 293.711L712.336 267.255C722.59 257.307 735.117 250.012 748.83 246.004C734.363 266.878 745.27 295.987 738.418 320.442C736.223 328.053 732.342 335.073 727.065 340.98C721.788 346.888 715.249 351.532 707.933 354.569L694.895 368.791C689.254 357.314 686.168 344.752 685.849 331.968C685.53 319.185 687.987 306.484 693.049 294.741C695.955 288.181 699.674 282.014 704.121 276.384C710.774 285.285 718.669 293.711 718.669 293.711Z" fill="#F2F2F2"/>
<path d="M373.867 536.045L362.393 541.58L335.583 499.958L352.517 491.789L373.867 536.045Z" fill="#A0616A"/>
<path d="M375.16 368.523L364.963 383.909C364.963 383.909 304.329 424.062 306.86 438.999C307.745 444.225 311.593 455.216 316.542 467.464C318.062 471.228 325.208 478.709 326.883 482.579C335.338 502.119 339.548 517.753 343.609 519.845C348.118 522.183 347.656 520.328 350.42 524.59L366.42 518.59C366.42 518.59 368.912 512.996 370.149 510.225C371.387 507.455 369.446 506.076 369.446 506.076C369.446 506.076 367.097 507.328 367.505 504.698C367.913 502.068 367.773 501.238 366.802 500.549C365.832 499.859 362.077 492.813 362.077 492.813C358.649 487.782 355.895 482.324 353.883 476.579C352.99 474.058 353.079 468.017 351.883 465.579C349.362 460.442 348.471 456.65 344.398 453.979C344.398 453.979 395.665 429.072 400.476 417.159C405.286 405.247 400.336 365.964 400.336 365.964L375.16 368.523Z" fill="#2F2E41"/>
<path d="M379.95 542.09L341.153 557.2L340.962 556.71C339.402 552.705 339.497 548.244 341.226 544.309C342.955 540.374 346.176 537.287 350.181 535.727L350.182 535.727L355.174 527.59L370.491 527.817L373.878 526.498L379.95 542.09Z" fill="#2F2E41"/>
<path d="M470.462 475.448L489.209 474.029L486.873 523.483L474.17 524.444L470.462 475.448Z" fill="#A0616A"/>
<path d="M367.442 382.129C363.131 363.148 375.279 419.746 387.878 430.328C392.833 434.489 413.571 430.182 430.74 431.494C441.26 432.391 451.532 435.182 461.06 439.731C458.321 444.722 461.187 452.17 461.72 458.867C462.692 471.084 463.671 482.319 463.671 482.319C463.671 482.319 463.661 490.303 463.128 491.367C462.594 492.431 462.859 493.23 464.454 495.361C466.048 497.492 463.387 497.489 463.387 497.489C463.387 497.489 462.319 499.617 464.713 501.483C467.106 503.349 472.786 508.784 472.786 508.784L488.023 507.431C488.463 502.37 489.778 501.705 492.664 497.524C495.409 493.568 494.781 469.829 492.846 447.547C492.715 446.037 494.821 441.286 494.678 439.796C493.249 424.845 489.037 414.482 487.18 408.888C485.899 405.028 479.745 401.7 471.428 398.895C470.159 398.467 468.839 398.052 467.479 397.648C444.544 390.845 410.02 387.503 410.02 387.503L391.143 370.713L367.442 382.129Z" fill="#2F2E41"/>
<path d="M472.462 521.73L475.911 520.585L487.56 510.637L496.596 513.717L496.597 513.716C500.676 512.362 505.126 512.684 508.968 514.61C512.81 516.537 515.729 519.911 517.084 523.99L517.25 524.49L477.735 537.611L472.462 521.73Z" fill="#2F2E41"/>
<path d="M384.839 272.832L373.499 281.467L359.823 285.67C359.823 285.67 354.169 365.198 349.075 370.293C343.98 375.387 348.575 375.524 347.551 382.142C346.527 388.76 344.039 402.326 344.039 402.326C378.426 420.528 408.072 421.017 431.884 399.716C432.189 398.399 432.034 397.017 431.446 395.799C430.857 394.582 429.87 393.602 428.648 393.022C424.216 390.67 432.734 379.694 429.112 377.859C425.49 376.024 430.584 360.104 430.584 360.104L427.242 326.889L429.883 321.579L423.439 289.09L412.259 285.007L407.793 274.247L384.839 272.832Z" fill="#6C63FF"/>
<path d="M396.448 268.027C408.836 268.027 418.878 257.984 418.878 245.596C418.878 233.208 408.836 223.165 396.448 223.165C384.059 223.165 374.017 233.208 374.017 245.596C374.017 257.984 384.059 268.027 396.448 268.027Z" fill="#A0616A"/>
<path d="M377.735 414.181C377.786 412.745 377.521 411.315 376.959 409.992C376.398 408.669 375.553 407.486 374.484 406.525C373.416 405.564 372.15 404.848 370.775 404.43C369.4 404.011 367.95 403.899 366.527 404.101L350.546 373.037L341.642 388.857L358.183 415.93C358.681 418.298 360.031 420.401 361.976 421.84C363.921 423.28 366.326 423.955 368.736 423.74C371.146 423.524 373.393 422.432 375.052 420.67C376.71 418.909 377.665 416.6 377.735 414.181Z" fill="#FFB6B6"/>
<path d="M350.82 406.582L316.542 353.455L316.655 353.21C316.785 352.93 324.547 336.166 332.068 320.811C333.226 318.446 334.379 316.115 335.497 313.882C335.98 312.919 336.455 311.975 336.923 311.052C340.082 304.824 342.842 299.677 344.49 297.232C348.134 291.703 353.559 287.588 359.865 285.568L360.023 285.527L360.175 285.59C363.259 286.892 365.808 289.206 367.401 292.15C368.994 295.095 369.536 298.494 368.938 301.788C365.964 317.675 359.339 332.655 349.585 345.543L344.028 352.868L363.339 394.853L350.82 406.582Z" fill="#6C63FF"/>
<path d="M440.087 426.391V427.818C440.087 428.654 439.755 429.456 439.163 430.047C438.572 430.638 437.771 430.97 436.935 430.97H332.113C331.277 430.97 330.475 430.638 329.884 430.047C329.293 429.456 328.961 428.654 328.961 427.818V426.391C328.961 425.555 329.293 424.754 329.884 424.163C330.475 423.572 331.277 423.24 332.113 423.24H333.974C333.908 423.009 333.874 422.771 333.872 422.532V369.031C333.873 368.331 334.151 367.659 334.647 367.163C335.143 366.667 335.815 366.389 336.515 366.388H432.532C433.233 366.389 433.905 366.667 434.401 367.163C434.896 367.659 435.175 368.331 435.175 369.031V422.532C435.176 422.771 435.142 423.01 435.074 423.24H436.935C437.771 423.24 438.572 423.572 439.163 424.163C439.755 424.754 440.087 425.555 440.087 426.391Z" fill="#3F3D56"/>
<path d="M386.589 396.615C385.404 396.615 384.246 396.264 383.261 395.606C382.276 394.947 381.508 394.012 381.055 392.917C380.601 391.823 380.482 390.618 380.714 389.456C380.945 388.294 381.515 387.226 382.353 386.389C383.191 385.551 384.258 384.98 385.42 384.749C386.583 384.518 387.787 384.636 388.882 385.09C389.976 385.543 390.912 386.311 391.57 387.296C392.229 388.282 392.58 389.44 392.58 390.625C392.578 392.213 391.946 393.736 390.823 394.859C389.7 395.982 388.177 396.614 386.589 396.615ZM386.589 385.667C385.609 385.667 384.65 385.957 383.835 386.502C383.019 387.047 382.384 387.821 382.009 388.727C381.633 389.633 381.535 390.63 381.726 391.592C381.918 392.554 382.39 393.437 383.083 394.131C383.777 394.824 384.66 395.296 385.622 395.487C386.584 395.679 387.581 395.581 388.487 395.205C389.393 394.83 390.167 394.195 390.712 393.379C391.256 392.564 391.547 391.605 391.547 390.625C391.546 389.31 391.023 388.05 390.093 387.12C389.164 386.191 387.904 385.668 386.589 385.667Z" fill="white"/>
<path d="M384.524 394.034C387.547 394.034 389.998 391.583 389.998 388.559C389.998 385.536 387.547 383.085 384.524 383.085C381.501 383.085 379.05 385.536 379.05 388.559C379.05 391.583 381.501 394.034 384.524 394.034Z" fill="white"/>
<path d="M468.694 202.936C467.75 204.02 467.055 205.298 466.658 206.679C466.262 208.06 466.172 209.512 466.397 210.931C466.622 212.351 467.156 213.703 467.96 214.894C468.764 216.085 469.82 217.086 471.053 217.824L463.907 252.02L480.786 245.337L484.983 213.889C486.087 211.736 486.363 209.253 485.759 206.91C485.154 204.567 483.711 202.528 481.703 201.178C479.696 199.828 477.262 199.261 474.864 199.585C472.467 199.909 470.271 201.102 468.694 202.936Z" fill="#A0616A"/>
<path d="M484.817 225.788L477.991 288.644L477.75 288.763C477.55 288.861 468.903 293.102 458.288 298.153C456.498 299.006 456.754 302.697 454.883 303.579C453.594 304.187 450.189 301.982 448.887 302.591C437.284 308.016 425.552 313.292 420.877 314.722C414.565 316.722 407.759 316.503 401.588 314.101L401.439 314.033L401.361 313.888C399.785 310.935 399.262 307.533 399.879 304.242C400.495 300.952 402.215 297.97 404.754 295.788C417.068 285.318 431.647 277.853 447.34 273.983L456.27 271.793L467.706 227.016L484.817 225.788Z" fill="#6C63FF"/>
<path d="M446.601 202.282L449.169 225.592C449.348 226.173 449.708 226.682 450.198 227.044C450.687 227.405 451.28 227.6 451.888 227.6H463.728C464.336 227.6 464.929 227.405 465.418 227.044C465.908 226.682 466.268 226.173 466.447 225.592L468.575 207.726C469.189 208.027 469.865 208.178 470.549 208.167C471.233 208.155 471.904 207.982 472.508 207.66C473.112 207.339 473.63 206.879 474.021 206.318C474.412 205.757 474.665 205.111 474.758 204.433C474.851 203.756 474.781 203.066 474.556 202.42C474.33 201.775 473.954 201.192 473.459 200.72C472.964 200.248 472.365 199.9 471.709 199.705C471.054 199.51 470.361 199.473 469.689 199.598C469.423 199.285 469.093 199.033 468.72 198.86C468.347 198.688 467.941 198.599 467.53 198.6H449.32C448.875 198.6 448.436 198.705 448.038 198.905C447.641 199.106 447.296 199.397 447.031 199.755C446.767 200.113 446.59 200.529 446.515 200.968C446.44 201.406 446.47 201.857 446.601 202.282ZM468.946 206.518L470.249 202.282C470.4 201.794 470.415 201.273 470.293 200.776C470.348 200.773 470.401 200.76 470.457 200.76C471.275 200.76 472.06 201.085 472.639 201.663C473.217 202.242 473.542 203.027 473.542 203.845C473.542 204.663 473.217 205.448 472.639 206.026C472.06 206.605 471.275 206.93 470.457 206.93C469.926 206.927 469.405 206.785 468.946 206.518Z" fill="#3F3D56"/>
<path d="M414.718 226.326C412.873 220.959 403.69 217.237 388.804 216.719C373.917 216.202 370.141 233.745 370.141 233.745C360.203 241.807 380.753 263.39 381.747 262.613L381.3 258.558C380.56 251.841 377.415 246.6 381.415 239.6L385.256 239.644C390.217 240.598 395.177 241.552 400.138 242.506L394.265 237.335L394.431 237.079C396.929 238.38 399.647 239.205 402.447 239.513C405.604 239.698 409.055 238.442 410.567 235.665C410.97 234.902 411.217 234.065 411.292 233.205C415.548 234.906 417.495 240.153 417.495 240.153C417.495 240.153 416.562 231.692 414.718 226.326Z" fill="#2F2E41"/>
</g>
<defs>
<clipPath id="clip0_158_5">
<rect width="748.83" height="557.2" fill="white"/>
</clipPath>
</defs>
</svg>
