<svg width="227" height="245" viewBox="0 0 227 245" fill="none" xmlns="http://www.w3.org/2000/svg">
<path d="M155.641 212.31C153.215 208.913 149.931 206.428 145.803 205.498C142.203 204.687 138.501 204.825 134.842 204.853L88.5702 205.21C84.6074 205.24 80.8078 208.674 80.9919 212.788C81.1746 216.868 84.3224 220.399 88.5702 220.366C102.125 220.262 115.679 220.157 129.233 220.053C132.428 220.028 135.626 219.971 138.821 219.981C139.539 219.983 140.254 220.021 140.971 220.029C141.144 220.031 141.27 220.03 141.358 220.026C141.38 220.033 141.399 220.039 141.428 220.047C141.802 220.15 142.186 220.22 142.562 220.318C142.43 220.322 142.806 220.556 142.995 220.636C143.021 220.687 143.076 220.778 143.168 220.918C143.297 221.159 143.678 221.893 143.694 221.87C144.267 223.318 144.74 224.805 145.109 226.319C145.989 229.656 146.183 230.354 146.31 233.486C146.47 237.442 149.681 241.252 153.888 241.064C157.857 240.886 161.638 237.728 161.466 233.486C161.177 226.336 159.922 218.306 155.641 212.31Z" fill="#E6E6E6"/>
<path d="M91.2902 229.411C90.4211 224.145 89.5686 218.874 88.6826 213.611C87.7837 208.271 85.9476 203.381 81.7921 199.876C80.6818 198.94 79.5305 198.066 78.3744 197.194C77.9678 196.888 77.562 196.581 77.1603 196.268C77.1362 196.249 77.1209 196.238 77.1001 196.221C77.0559 196.183 77.003 196.138 76.9317 196.078C75.1997 194.612 73.5262 193.081 71.9321 191.454C70.5165 190.008 69.1627 188.501 67.8708 186.933C67.5479 186.541 67.2292 186.146 66.9147 185.747C66.8606 185.678 66.5692 185.302 66.3772 185.056C66.1986 184.81 65.8724 184.366 65.8175 184.288C65.4501 183.769 65.0891 183.244 64.7347 182.715C62.321 179.098 60.2309 175.276 58.4888 171.293C58.316 170.898 58.1474 170.5 57.9828 170.1C57.9386 169.979 57.8815 169.822 57.8056 169.613C57.4546 168.648 57.1042 167.684 56.7832 166.707C56.1012 164.632 55.5148 162.526 55.0241 160.39C54.7815 159.335 54.5631 158.275 54.3689 157.21C54.2688 156.662 54.1751 156.113 54.0879 155.562C54.0736 155.471 53.9885 154.877 53.9383 154.542C53.9013 154.205 53.8324 153.608 53.8231 153.516C53.7676 152.961 53.7184 152.406 53.6754 151.85C53.5785 150.6 53.5129 149.347 53.4788 148.093C53.4205 145.863 53.4605 143.634 53.5986 141.404C53.6772 140.152 53.7892 138.902 53.927 137.655C53.9353 137.579 53.9418 137.518 53.9478 137.463C53.9561 137.407 53.9659 137.344 53.9774 137.265C54.0794 136.576 54.1867 135.888 54.3068 135.202C54.7613 132.597 55.3525 130.018 56.0778 127.475C56.4213 126.272 56.7943 125.079 57.1969 123.896C57.3764 123.371 57.5616 122.848 57.7525 122.327C57.74 122.36 58.3124 120.898 58.32 120.849C60.5911 115.483 64.3058 110.592 64.3108 104.496C64.3143 100.369 60.8228 96.4156 56.7326 96.6064C54.6933 96.6831 52.7634 97.5486 51.3497 99.0204C49.936 100.492 49.1489 102.455 49.1543 104.496C49.1543 104.589 49.1538 104.668 49.1536 104.745C49.1154 104.873 49.0835 104.98 49.0548 105.075C48.6119 106.037 48.0694 106.952 47.5832 107.891C46.252 110.459 45.1158 113.112 44.0365 115.804C42.2695 120.188 40.917 124.728 39.9966 129.364C37.9962 139.522 37.8409 149.957 39.5382 160.17C42.4765 178.08 52.1663 195.224 65.6374 206.748C66.8065 207.748 68.004 208.714 69.2129 209.661C69.7131 210.053 70.2175 210.437 70.7244 210.819C70.964 211 71.9567 211.783 71.52 211.403C72.459 212.205 72.8542 212.608 73.0954 213.198C73.1304 213.334 73.178 213.519 73.2425 213.772C73.4125 214.437 73.5739 215.102 73.7081 215.776C74.8806 221.674 75.6956 227.67 76.675 233.606C77.3483 237.684 82.3692 240.339 85.9974 239.117C90.2203 237.694 92.0116 233.781 91.2902 229.411Z" fill="#E6E6E6"/>
<path d="M156.407 244.708C153.225 244.716 150.169 243.462 147.91 241.22C145.651 238.977 144.373 235.931 144.358 232.748V224.104C135.307 225.117 104.314 224.882 95.4305 223.455V232.403C95.4067 235.583 94.1266 238.624 91.8695 240.865C89.6124 243.105 86.5611 244.362 83.3809 244.362C80.2008 244.362 77.1495 243.105 74.8924 240.865C72.6352 238.624 71.3552 235.583 71.3314 232.403V214.834C59.2988 208.15 49.268 198.375 42.274 186.52C35.2801 174.665 31.5765 161.158 31.5453 147.393C31.5453 123.791 42.2416 101.774 60.8917 86.9876C73.0178 77.3408 87.7508 71.5392 103.199 70.328C105.295 70.1636 107.405 70.0803 109.469 70.0803C116.741 70.0803 149.548 71.2036 157.78 73.5718L176.549 54.9473C176.825 54.6698 177.177 54.4808 177.561 54.4043C177.945 54.3278 178.343 54.3673 178.704 54.5179C179.068 54.6627 179.38 54.9142 179.598 55.2393C179.817 55.5645 179.932 55.9481 179.928 56.3398V59.301L183.583 55.6814C183.859 55.4036 184.211 55.2143 184.594 55.1376C184.978 55.061 185.376 55.1006 185.737 55.2512C186.101 55.396 186.413 55.6475 186.632 55.9728C186.85 56.2981 186.965 56.6819 186.962 57.0739V90.1648C196.38 98.6556 203.559 109.338 207.861 121.267C212.163 133.195 213.457 146.001 211.626 158.548C209.796 171.096 204.899 182.999 197.369 193.201C189.838 203.404 179.908 211.591 168.457 217.038V232.748C168.441 235.931 167.164 238.977 164.905 241.22C162.646 243.462 159.59 244.716 156.407 244.708ZM145.305 223.029V232.748C145.329 235.677 146.509 238.478 148.589 240.54C150.668 242.603 153.478 243.76 156.407 243.76C159.336 243.76 162.146 242.603 164.226 240.54C166.305 238.478 167.485 235.677 167.509 232.748V216.44L167.78 216.311C180.629 210.214 191.536 200.675 199.292 188.754C209.174 173.541 213.284 155.293 210.878 137.313C208.471 119.332 199.707 102.807 186.172 90.7286L186.015 90.5873V57.0739C186.018 56.8702 185.959 56.6705 185.845 56.5015C185.732 56.3325 185.569 56.2023 185.379 56.1287C185.191 56.048 184.982 56.0262 184.781 56.0662C184.579 56.1062 184.395 56.2061 184.251 56.3528L178.981 61.5725V56.3398C178.984 56.1362 178.925 55.9364 178.812 55.7674C178.698 55.5984 178.535 55.4683 178.346 55.3946C178.156 55.314 177.947 55.2925 177.746 55.3328C177.544 55.373 177.359 55.4733 177.216 55.6203L158.044 74.6435L157.772 74.5582C150.12 72.1631 116.796 71.0276 109.469 71.0276C107.43 71.0276 105.345 71.1099 103.273 71.2725C88.0129 72.4689 73.4589 78.2 61.4803 87.7298C43.0582 102.336 32.4925 124.082 32.4925 147.393C32.524 161.036 36.2079 174.421 43.1614 186.159C50.1149 197.897 60.0844 207.559 72.0343 214.141L72.2786 214.276V232.403C72.3031 235.331 73.4835 238.131 75.563 240.193C77.6424 242.256 80.4524 243.413 83.3809 243.413C86.3095 243.413 89.1195 242.256 91.1989 240.193C93.2783 238.131 94.4588 235.331 94.4832 232.403V222.321L95.0444 222.426C103.028 223.928 136.645 224.165 144.77 223.099L145.305 223.029Z" fill="#3F3D56"/>
<path d="M122.57 0.923523C113.954 0.926855 105.677 4.28269 99.4918 10.2807C93.3063 16.2788 89.6975 24.4483 89.4291 33.0602C89.4197 33.3965 89.415 33.7375 89.415 34.0786C89.415 40.636 91.3595 47.0462 95.0027 52.4985C98.6458 57.9508 103.824 62.2004 109.882 64.7098C115.94 67.2192 122.607 67.8758 129.038 66.5965C135.47 65.3172 141.377 62.1595 146.014 57.5227C150.651 52.8859 153.809 46.9782 155.088 40.5468C156.367 34.1153 155.711 27.449 153.201 21.3907C150.692 15.3324 146.442 10.1543 140.99 6.51116C135.538 2.86803 129.127 0.923523 122.57 0.923523ZM122.57 66.2863C114.031 66.2774 105.844 62.8812 99.8056 56.843C93.7674 50.8048 90.3712 42.6178 90.3623 34.0786C90.3623 33.6381 90.3718 33.2023 90.3908 32.7713C90.6472 26.4623 92.7526 20.3678 96.445 15.2457C100.137 10.1237 105.254 6.19997 111.158 3.96252C117.063 1.72507 123.495 1.27259 129.655 2.66134C135.814 4.0501 141.43 7.21883 145.803 11.7735C150.176 16.3282 153.114 22.0679 154.251 28.2788C155.388 34.4898 154.675 40.898 152.199 46.7067C149.724 52.5154 145.595 57.4683 140.327 60.9494C135.059 64.4306 128.884 66.2865 122.57 66.2863Z" fill="#3F3D56"/>
<path d="M150.515 34.0785C150.515 41.49 147.571 48.5979 142.33 53.8386C137.089 59.0793 129.982 62.0235 122.57 62.0235C115.159 62.0235 108.051 59.0793 102.81 53.8386C97.5693 48.5979 94.6251 41.49 94.6251 34.0785C94.6251 33.1928 94.6677 32.3213 94.7482 31.4593C95.4216 24.3064 98.824 17.6878 104.249 12.9775C109.674 8.26729 116.705 5.8274 123.881 6.16447C131.058 6.50153 137.829 9.58967 142.788 14.7876C147.748 19.9856 150.515 26.8941 150.515 34.0785Z" fill="#6C63FF"/>
<path d="M34.8136 123.716C28.2051 122.739 21.8849 120.35 16.2836 116.71C13.5087 114.907 10.9397 112.806 8.62295 110.444C6.33626 108.112 4.14868 105.461 3.01605 102.355C1.92632 99.4809 1.98248 96.2982 3.17294 93.4647C4.34717 90.6485 6.59019 88.4128 9.41024 87.2479C12.2472 86.1165 15.6747 85.9955 18.4357 87.2345C19.7514 87.8112 20.8899 88.7276 21.7343 89.8897C22.1268 90.4254 22.4175 91.0288 22.5917 91.6697C22.7535 92.2504 22.7682 92.8623 22.6345 93.4502C22.4727 94.0371 22.1871 94.5825 21.7972 95.0501C21.4072 95.5176 20.9218 95.8963 20.3734 96.1608C19.1667 96.7799 17.8591 97.1787 16.5122 97.3384C15.1576 97.5232 13.2116 97.6912 12.1225 96.6038C11.8983 96.3887 11.722 96.1287 11.605 95.8409C11.5231 95.6205 11.4951 95.3837 11.5234 95.1503C11.5075 95.2532 11.5891 94.9265 11.5844 94.9396C11.5672 94.9878 11.4926 95.1055 11.5986 94.9247C11.6317 94.8651 11.6686 94.8077 11.709 94.7528C11.673 94.7993 11.594 94.877 11.7352 94.7437C11.8518 94.6161 12.0018 94.5235 12.1682 94.4764C12.2338 94.4573 12.3003 94.4421 12.366 94.4241C12.5331 94.3785 12.1995 94.4266 12.3704 94.4212C12.4364 94.419 12.5031 94.4207 12.5689 94.4177C12.7365 94.4102 12.4034 94.372 12.5641 94.4124C12.6265 94.4281 12.6883 94.4434 12.7498 94.4628C12.8834 94.5048 12.6552 94.3647 12.7457 94.4696C12.8518 94.5925 12.6343 94.3501 12.7549 94.469C12.8149 94.528 12.8715 94.5904 12.9243 94.6558C13.1335 94.8623 13.4155 94.978 13.7094 94.978C14.0033 94.978 14.2853 94.8623 14.4945 94.6558C14.6965 94.4444 14.8092 94.1632 14.8092 93.8707C14.8092 93.5783 14.6965 93.2971 14.4945 93.0857C13.3997 91.7285 11.2372 92.0639 10.1297 93.2109C8.7173 94.6737 9.27661 96.9921 10.6505 98.2684C12.2058 99.7134 14.4086 99.8139 16.4092 99.5715C18.1 99.4095 19.7477 98.9439 21.2731 98.197C22.7888 97.4522 23.9743 96.1715 24.6 94.6029C24.8825 93.7658 24.9839 92.8782 24.8977 91.9989C24.8114 91.1196 24.5394 90.2686 24.0996 89.5023C22.3333 86.1815 18.6757 84.479 15.0605 84.1841C13.1992 84.0383 11.3274 84.263 9.55352 84.8454C7.77965 85.4277 6.13888 86.356 4.72614 87.5767C2.00317 90.0281 0.326415 93.4322 0.0426443 97.085C-0.272925 100.872 1.19648 104.55 3.33884 107.607C5.58163 110.712 8.25801 113.48 11.2863 115.826C17.2066 120.553 24.151 123.828 31.5639 125.389C32.4456 125.571 33.3321 125.727 34.2233 125.857C34.5069 125.926 34.806 125.884 35.0597 125.74C35.3134 125.596 35.5027 125.36 35.589 125.082C35.6651 124.798 35.6264 124.495 35.4813 124.24C35.3362 123.984 35.0963 123.796 34.8136 123.716Z" fill="#3F3D56"/>
<path d="M140.619 75.4628C130.936 75.3261 121.285 75.5718 111.663 76.1999C108.375 76.4147 105.529 77.577 105.529 79.5306C105.529 81.164 108.352 83.0775 111.663 82.8613C121.28 82.2333 130.931 81.9876 140.619 82.1241C148.516 82.2356 148.511 75.5742 140.619 75.4628Z" fill="#CCCCCC"/>
<path d="M126.308 81.7942C125.262 81.7942 100.681 81.7551 100.681 78.3598C100.681 74.9647 125.262 74.9257 126.308 74.9257C127.354 74.9257 151.935 74.9647 151.935 78.3598C151.935 81.7551 127.354 81.7942 126.308 81.7942ZM101.642 78.3598C102.315 79.3892 111.35 80.8469 126.308 80.8469C141.266 80.8469 150.301 79.3892 150.974 78.3598C150.301 77.3306 141.266 75.8729 126.308 75.8729C111.35 75.8729 102.315 77.3306 101.642 78.3598Z" fill="#3F3D56"/>
<path d="M204.295 171.052C209.737 170.901 216.509 170.712 221.726 166.901C223.279 165.72 224.556 164.213 225.466 162.487C226.375 160.76 226.897 158.855 226.993 156.906C227.099 153.896 226.012 151.269 223.931 149.51C221.206 147.208 217.227 146.668 212.939 147.928L217.382 115.461L214.12 115.014L208.897 153.183L211.621 151.934C214.778 150.485 219.113 149.748 221.806 152.024C222.467 152.619 222.983 153.359 223.312 154.185C223.641 155.012 223.775 155.903 223.703 156.79C223.623 158.241 223.232 159.658 222.556 160.944C221.879 162.23 220.934 163.355 219.784 164.243C215.724 167.208 210.326 167.591 204.204 167.762L204.295 171.052Z" fill="#3F3D56"/>
<path d="M195.278 118.261H177.548V121.553H195.278V118.261Z" fill="#3F3D56"/>
<path d="M129.295 13.3122C128.922 13.4574 128.85 13.657 128.786 14.7734C128.578 18.0225 127.307 20.9086 125.047 23.2138C122.706 25.6007 119.738 26.9439 116.316 27.1618C115.454 27.2162 115.3 27.2525 115.118 27.434C114.828 27.7245 114.837 28.1873 115.136 28.4687C115.336 28.6593 115.49 28.6956 116.434 28.75C119.738 28.9588 122.606 30.2566 124.938 32.5981C127.28 34.9306 128.578 37.7985 128.786 41.1021C128.841 42.046 128.877 42.2003 129.068 42.4C129.349 42.6995 129.812 42.7085 130.102 42.4181C130.284 42.2366 130.32 42.0823 130.375 41.2201C130.574 38.1434 131.663 35.4479 133.624 33.2153C135.974 30.5379 139.169 28.9769 142.772 28.75C143.988 28.6774 144.17 28.5867 144.279 28.0421C144.324 27.7971 144.297 27.7063 144.079 27.4885C143.834 27.2434 143.752 27.2253 142.899 27.1708C139.36 26.9349 136.283 25.5191 133.959 23.0504C131.79 20.7271 130.583 17.9226 130.375 14.7008C130.311 13.7932 130.293 13.7024 130.057 13.4755C129.803 13.2123 129.621 13.176 129.295 13.3122Z" fill="white"/>
<path d="M113.711 33.5058C113.421 33.6691 113.412 33.7145 113.276 35.0033C113.049 37.0362 112.241 38.7425 110.816 40.1674C109.355 41.6286 107.603 42.4363 105.498 42.6269C104.427 42.7267 104.273 42.7812 104.109 43.1715C104.009 43.4165 104.009 43.5073 104.137 43.7614C104.309 44.1153 104.336 44.1244 105.625 44.2515C109.709 44.669 112.831 47.7729 113.276 51.8842C113.412 53.2183 113.421 53.2274 113.775 53.3998C114.029 53.5269 114.12 53.5269 114.365 53.4271C114.746 53.2728 114.801 53.1366 114.9 52.0566C115.109 49.9057 115.908 48.1813 117.369 46.7201C118.794 45.2952 120.5 44.4874 122.533 44.2605C123.84 44.1244 123.876 44.1153 124.031 43.7977C124.212 43.4528 124.14 43.0353 123.849 42.8447C123.731 42.7721 123.25 42.6814 122.706 42.6269C120.591 42.4363 119.003 41.7103 117.469 40.2309C115.89 38.7153 115.064 36.8638 114.855 34.4406C114.828 34.0685 114.746 33.7508 114.655 33.6419C114.447 33.3969 114.02 33.3333 113.711 33.5058Z" fill="white"/>
</svg>
