<svg width="24" height="24" viewBox="0 0 28 27" fill="none" xmlns="http://www.w3.org/2000/svg">
<path d="M6.29884 13.8925C6.39173 13.0139 6.39771 12.9829 6.59592 12.8715C6.80655 12.754 7.09723 12.7973 7.23933 12.9644C7.30142 13.0386 7.35705 13.2552 7.37544 13.5089C7.51801 15.1611 8.08094 16.4234 9.158 17.4568C10.2033 18.4655 11.2864 18.9605 12.7281 19.0904C13.0993 19.1276 13.4276 19.1894 13.5081 19.239C13.7059 19.3689 13.7555 19.6536 13.6318 19.8887C13.5265 20.1053 13.5017 20.1114 12.6109 20.2043C11.2248 20.359 10.0612 20.9097 9.08946 21.8812C8.09333 22.8774 7.54882 24.0532 7.40671 25.5197C7.33865 26.2561 7.3014 26.3489 7.04156 26.4541C6.87462 26.5222 6.81253 26.5222 6.63915 26.4355C6.39771 26.3179 6.39173 26.3118 6.29884 25.4022C5.99577 22.599 3.86693 20.4827 1.08229 20.1981C0.203891 20.1114 0.185039 20.1053 0.0677662 19.8639C-0.0191534 19.6907 -0.0191606 19.6288 0.0489034 19.4617C0.160657 19.1956 0.265522 19.1585 0.995831 19.0904C2.43161 18.9605 3.62594 18.4098 4.62207 17.4135C5.59336 16.442 6.14431 15.2787 6.29884 13.8925Z" fill="white"/>
<path d="M17.2511 1.55758C17.3845 0.29894 17.3932 0.254622 17.677 0.095076C17.9782 -0.0733341 18.3948 -0.0112901 18.5986 0.228029C18.6873 0.334394 18.7669 0.644622 18.7936 1.00803C18.9973 3.37463 19.804 5.18283 21.3465 6.66304C22.8443 8.10784 24.3955 8.8169 26.4605 9.00306C26.9925 9.05623 27.4621 9.14485 27.5775 9.21576C27.8613 9.40193 27.9321 9.80962 27.7546 10.1464C27.6042 10.4567 27.5688 10.4656 26.2921 10.5985C24.3068 10.8201 22.6406 11.609 21.2489 13.0006C19.8219 14.4276 19.0419 16.1117 18.8377 18.2124C18.7402 19.2672 18.6873 19.4001 18.3148 19.5508C18.0757 19.6483 17.9869 19.6483 17.7386 19.5242C17.3932 19.3558 17.3845 19.347 17.2511 18.044C16.817 14.0288 13.7679 10.9974 9.77923 10.5896C8.52051 10.4656 8.49386 10.4567 8.32553 10.111C8.20136 9.86283 8.20134 9.77421 8.29884 9.53488C8.45842 9.15372 8.60928 9.10056 9.65508 9.00306C11.7117 8.8169 13.4221 8.02805 14.8491 6.601C16.2407 5.20941 17.0299 3.54304 17.2511 1.55758Z" fill="white"/>
</svg>
